<svg width="200" height="80" viewBox="0 0 200 80" fill="none" xmlns="http://www.w3.org/2000/svg">
<path fill-rule="evenodd" clip-rule="evenodd" d="M42.3162 34.4871C41.7838 34.0203 41.0182 34.031 40.579 34.1665C40.8666 33.8133 41.5371 33.5235 41.7344 33.4884C41.8847 33.5448 42.3162 33.988 42.3162 34.4871ZM44.0159 32.5544C43.6658 30.6815 39.3135 31.9227 37.1217 31.1271C37.0798 31.6731 37.7965 32.5479 38.4821 32.8715C37.3103 33.8887 36.2582 35.938 36.0457 38.4416C35.8341 35.938 34.7819 33.8887 33.61 32.8716C34.2955 32.548 35.013 31.6733 34.9703 31.1274C32.7786 31.9229 28.4262 30.6819 28.0755 32.5547C28.0018 32.9512 28.1925 33.5551 28.3984 33.7289C28.4353 33.6033 28.6277 33.1923 29.2344 33.1002C32.3007 32.6369 34.8608 37.3628 32.5499 39.2735C32.5146 39.3029 32.5346 39.3563 32.5822 39.3563H39.5106C39.5575 39.3563 39.5775 39.3028 39.5427 39.2736C37.2312 37.363 39.7913 32.6371 42.8577 33.1005C43.4648 33.1925 43.6567 33.6034 43.6937 33.729C43.8997 33.5552 44.0903 32.9509 44.0159 32.5544ZM44.7618 28.2562C44.7066 28.0793 46.5046 28.0748 46.5046 29.2003C46.5046 29.9544 45.4291 30.3115 45.4291 31.0943C45.4291 31.4587 45.8212 31.726 45.9416 31.726C45.6645 30.4696 46.8099 31.1271 47.1193 31.362C46.5046 29.6723 47.8882 29.6829 47.752 28.9082C47.6572 28.3669 46.4545 28.5303 46.0193 28.2562C45.2469 27.7701 44.3332 25.8782 43.7311 27.7701C44.8536 28.8122 44.2004 30.3463 42.7753 30.3463C42.7753 30.3463 42.7674 30.5712 42.7804 30.589C44.4802 30.5059 45.0727 29.2565 44.7618 28.2562ZM24.9313 31.362C25.2406 31.1271 26.3859 30.4696 26.1095 31.726C26.2292 31.726 26.6214 31.4587 26.6214 31.0943C26.6214 30.3115 25.5458 29.9544 25.5458 29.2003C25.5458 28.0748 27.3438 28.0793 27.2887 28.2562C26.9782 29.2567 27.5707 30.506 29.2705 30.589C29.283 30.5712 29.2752 30.3462 29.2752 30.3462C27.8507 30.3462 27.1975 28.8122 28.3194 27.77C27.7173 25.8782 26.8035 27.77 26.0311 28.2561C25.5959 28.5303 24.3931 28.3667 24.2985 28.9082C24.1629 29.6831 25.5458 29.6723 24.9313 31.362ZM29.7575 34.4871C30.2904 34.0203 31.0562 34.031 31.4947 34.1665C31.2082 33.8133 30.5366 33.5235 30.3398 33.4884C30.1895 33.5448 29.7575 33.988 29.7575 34.4871ZM36.8543 24.011L36.0253 23L35.1961 24.011L36.0251 25.0748L36.8543 24.011ZM41.5875 27.0677L40.998 26.3494L40.4088 27.0677L40.9979 27.7699L41.5875 27.0677ZM46.3699 47.8346L45.6227 47.0437L44.8752 47.8345L45.6227 48.5285L46.3699 47.8346ZM31.6421 27.0677L31.0527 26.3494L30.4636 27.0677L31.0528 27.7699L31.6421 27.0677ZM29.9533 30.5891H32.1525C34.0015 30.5891 34.8334 29.4542 35.0848 28.47H36.9662C37.2177 29.4542 38.0492 30.589 39.8988 30.589H42.098C42.098 30.589 42.4827 30.0671 42.5792 29.8086C42.9265 28.8787 42.4827 28.4448 41.8351 28.4448L40.9979 29.2036L40.161 28.4451C39.5134 28.4451 39.0695 28.8787 39.4169 29.8088C39.4613 29.9276 39.5674 30.1023 39.6679 30.2559C38.8875 30.1487 37.8914 29.6144 37.673 28.47C37.673 28.47 38.2495 27.5541 38.3944 27.1834C38.9142 25.8503 38.2502 25.3055 37.2791 25.3055L36.0255 26.7791L34.7718 25.3055C33.8007 25.3055 33.1368 25.8503 33.6572 27.1834C33.8013 27.5541 34.3785 28.4701 34.3785 28.4701C34.1596 29.6144 33.1636 30.1487 32.3833 30.256C32.4842 30.1022 32.5899 29.9276 32.6341 29.8086C32.9808 28.8787 32.5381 28.4449 31.8901 28.4449L31.0529 29.2037L30.2157 28.4452C29.5678 28.4452 29.1251 28.8788 29.4719 29.8089C29.5684 30.0672 29.9533 30.5891 29.9533 30.5891ZM52.69 37.406C52.2655 37.6209 49.7752 38.7874 46.5852 38.3559C46.6182 38.2038 46.6463 38.0506 46.6692 37.8966C48.7924 37.6426 50.5182 37.2825 51.6181 36.6707C52.8718 35.9729 53.42 34.3071 52.7872 33.068C52.7708 33.0367 52.7253 33.0311 52.7027 33.0574C52.3558 33.4566 50.1755 35.8285 46.7402 36.5659C46.7314 36.3879 46.7151 36.2103 46.6914 36.0337C48.3599 35.0876 49.9888 33.9973 50.7647 33.0004C51.937 31.4932 51.8292 29.5706 50.7135 28.5904C50.7078 28.5855 50.7011 28.5818 50.6938 28.5797C50.6866 28.5776 50.6789 28.577 50.6715 28.5781C50.664 28.5792 50.6568 28.5818 50.6504 28.5858C50.644 28.5899 50.6386 28.5953 50.6345 28.6016C50.2815 29.184 46.9773 34.5242 43.3498 36.8298C43.3056 36.8581 43.2609 36.8858 43.216 36.9129C43.1119 36.9761 43.1005 37.1114 43.1889 37.1916C43.6074 37.5706 43.8673 38.0981 43.8673 38.6837C43.8673 39.7021 43.0824 40.5489 42.0449 40.7327C41.5177 40.8348 40.7569 40.8051 40.0257 40.5634C39.9928 40.5528 39.9588 40.5745 39.9588 40.6075V43.8323C39.9588 43.8842 40.0377 43.8971 40.0562 43.8476C40.5008 42.6701 41.831 42.42 42.4128 42.42C42.6222 43.6783 42.9961 44.7205 43.4819 45.2815C44.2731 46.193 45.5649 46.1802 46.125 45.55C46.1295 45.5449 46.1328 45.5387 46.1347 45.5321C46.1365 45.5255 46.1369 45.5186 46.1357 45.5118C46.1345 45.505 46.1317 45.4986 46.1277 45.493C46.1237 45.4875 46.1185 45.4829 46.1124 45.4796C45.7833 45.2905 43.9003 44.1343 43.5234 42.2398C43.6713 42.1895 43.8159 42.1301 43.9564 42.0616C44.5643 43.0676 45.449 43.9635 46.1613 44.3057C47.3578 44.8796 48.4531 44.6005 48.9388 43.7603C48.9564 43.7307 48.9348 43.6939 48.8991 43.6906C48.159 43.6315 45.8878 42.9806 44.9208 41.3947C45.0326 41.2931 45.1394 41.1861 45.2408 41.0741C46.253 41.8447 47.6836 42.5257 48.708 42.6647C49.9066 42.8277 51.2647 42.4451 51.2975 41.0514C51.2981 41.0235 51.2731 41.0006 51.2435 41.0023C50.8173 41.0281 47.9963 41.1508 45.9861 39.9969C46.0559 39.8642 46.1211 39.729 46.1814 39.5916C46.1814 39.5916 49.2187 40.3096 50.658 40.0719C52.0881 39.8359 52.9258 38.7697 52.7641 37.4432C52.7594 37.4103 52.7208 37.3904 52.69 37.406ZM25.8694 39.5912C25.9299 39.7286 25.9952 39.8638 26.0652 39.9966C24.0556 41.1499 21.2358 41.0281 20.8076 41.0019C20.7776 41.0003 20.7525 41.0242 20.7532 41.0516C20.7866 42.4449 22.1442 42.8273 23.3428 42.6644C24.3667 42.5253 25.7981 41.8443 26.8099 41.0739C26.9114 41.1858 27.0182 41.2927 27.1299 41.3945C26.1624 42.9802 23.8915 43.6313 23.1516 43.6904C23.1157 43.6939 23.0948 43.7306 23.1119 43.7602C23.5976 44.6004 24.6929 44.8795 25.89 44.3056C26.6016 43.9634 27.4863 43.0675 28.0939 42.0615C28.2346 42.1298 28.3793 42.1892 28.5272 42.2396C28.1503 44.1342 26.2673 45.2902 25.9381 45.4796C25.9321 45.4829 25.9269 45.4875 25.9229 45.4931C25.9189 45.4987 25.9162 45.5051 25.915 45.5118C25.9138 45.5186 25.9142 45.5255 25.916 45.5321C25.9178 45.5387 25.9211 45.5448 25.9256 45.55C26.4857 46.1801 27.778 46.1929 28.5691 45.2814C29.0549 44.7204 29.4284 43.6781 29.6376 42.4199C30.22 42.4199 31.5498 42.67 31.9942 43.8473C32.0134 43.897 32.0923 43.8841 32.0923 43.8321V40.6074C32.0923 40.5745 32.0576 40.5527 32.0248 40.5633C31.2938 40.8051 30.5327 40.8345 30.0061 40.7323C28.9681 40.5488 28.1832 39.702 28.1832 38.6837C28.1832 38.0983 28.4439 37.5703 28.8614 37.1913C28.9506 37.1115 28.9385 36.9762 28.8353 36.9131C28.79 36.886 28.745 36.8583 28.7003 36.83C25.0749 34.5257 21.7726 29.1891 21.4166 28.603C21.4124 28.5965 21.4069 28.591 21.4004 28.5868C21.3939 28.5827 21.3866 28.5799 21.379 28.5788C21.3713 28.5777 21.3636 28.5782 21.3562 28.5804C21.3487 28.5825 21.3419 28.5862 21.336 28.5912C20.222 29.572 20.1137 31.4938 21.2861 33.0007C22.062 33.9976 23.6909 35.0878 25.3588 36.0339C25.3353 36.2105 25.3192 36.388 25.3107 36.5659C21.8782 35.8292 19.6994 33.4613 19.3493 33.0593C19.3258 33.0318 19.2794 33.0373 19.2636 33.0687C18.6319 34.3086 19.1802 35.973 20.4326 36.6708C21.5326 37.2826 23.2585 37.6427 25.3816 37.8967C25.4045 38.0507 25.4325 38.2039 25.4655 38.356C22.2788 38.7869 19.7897 37.6231 19.3619 37.4066C19.3302 37.3904 19.2916 37.4104 19.2877 37.4439C19.1264 38.7703 19.9635 39.8354 21.3937 40.0715C22.8324 40.3093 25.8694 39.5912 25.8694 39.5912ZM45.6228 49.5471L44.516 48.6763C44.0743 48.9393 43.7497 49.3569 43.6236 49.8464C42.9579 49.9395 41.143 49.5364 41.3195 49.269C43.3086 46.4713 41.7872 44.8055 39.9586 44.8982V46.7769C39.9586 47.3805 39.432 47.8695 38.7833 47.8695H37.5206C36.6148 47.8695 36.0251 48.78 36.0251 48.78C36.0251 48.78 35.4354 47.8694 34.5297 47.8694H33.2671C32.6177 47.8694 32.0923 47.3804 32.0923 46.7769V44.8982C30.2637 44.8055 28.7412 46.4712 30.7308 49.2689C30.9058 49.5336 29.0402 49.9572 28.1652 49.8501C27.9346 49.6111 27.6021 49.4603 27.2297 49.4603C27.0714 49.4604 26.9144 49.4886 26.7659 49.5437C26.7659 49.5437 23.3274 46.288 23.2645 46.2562L23.2927 46.1904C23.4888 45.8241 23.189 45.4249 22.9995 45.453C23.2197 45.1889 23.2299 44.0329 22.0085 43.7654C22.0443 43.9976 22.0625 44.4715 22.0625 44.4715C22.0625 44.4715 21.1199 43.9619 20.6464 44.4018C20.2305 44.8941 20.8076 45.7873 20.8076 45.7873C20.8076 45.7873 20.3253 45.7991 20.0875 45.7789C20.4371 46.9613 21.6096 46.8776 21.8632 46.6443C21.8468 46.8321 22.2707 47.1002 22.63 46.8853L22.7878 46.809C22.8156 46.8462 26.1645 50.0103 26.1645 50.0103C26.0107 50.2386 25.9376 50.5187 25.988 50.8174C26.0675 51.2842 26.4562 51.6711 26.9529 51.7716C27.3036 51.842 27.6333 51.7739 27.8977 51.6192L28.7843 52.4419C28.8629 52.5136 28.9698 52.5582 29.0888 52.5497C29.3057 52.5352 29.4681 52.3595 29.4517 52.1579C29.4446 52.0669 29.3981 51.9888 29.334 51.9295C29.3199 51.914 28.4311 51.0888 28.4311 51.0888C29.1643 50.5749 30.5305 50.2126 31.6643 50.2126C31.8634 50.2126 31.9571 50.044 31.8886 49.8788C31.3749 48.6435 32.4792 47.7486 33.6217 48.477C34.12 48.7947 34.6262 49.4204 35.0076 50.4644C33.1332 50.9182 30.7797 52.1686 30.3035 53.5335C30.1201 54.0604 30.7258 54.7788 31.4613 54.9233C31.4677 54.9247 31.4744 54.9249 31.4809 54.9237C31.4873 54.9225 31.4935 54.9201 31.4991 54.9165C31.5046 54.9129 31.5094 54.9083 31.5131 54.9028C31.5168 54.8974 31.5195 54.8913 31.5208 54.8848C31.905 52.8473 34.0963 51.3289 35.2364 51.0711C35.2936 51.2245 35.2749 51.1749 35.3322 51.3277C34.0904 51.9151 32.8862 53.1536 32.5424 54.6263C32.3844 55.3006 33.1365 55.9085 33.7573 56.0749C33.7885 56.0831 33.8192 56.0615 33.8209 56.0314C33.9389 54.1692 34.7612 52.5875 35.4979 51.8681C35.5181 52.0088 35.5332 52.1502 35.5433 52.292C35.5433 52.292 34.789 54.3935 34.789 55.9269C34.789 56.6403 35.8493 57.1383 36.0059 57.208C36.2016 57.1383 37.2611 56.6403 37.2611 55.9269C37.2611 54.3934 36.507 52.2919 36.507 52.2919C36.5173 52.1501 36.5326 52.0087 36.553 51.868C37.2892 52.5878 38.112 54.1686 38.2295 56.0308C38.2302 56.0381 38.2325 56.0452 38.2362 56.0516C38.2399 56.0579 38.245 56.0634 38.251 56.0676C38.257 56.0718 38.2639 56.0746 38.2712 56.0759C38.2784 56.0771 38.2858 56.0768 38.2929 56.0749C38.9146 55.9085 39.6659 55.3006 39.5087 54.6263C39.1642 53.1538 37.9605 51.9151 36.7188 51.3277C36.7755 51.1749 36.7567 51.2244 36.8142 51.0709C37.9549 51.3288 40.1453 52.8471 40.5296 54.8847C40.5325 54.8977 40.5403 54.909 40.5515 54.9162C40.5626 54.9234 40.5762 54.9259 40.5892 54.9231C41.3242 54.7787 41.9308 54.0601 41.7463 53.5332C41.2714 52.1683 38.9173 50.9179 37.0425 50.4641C37.4246 49.4203 37.9309 48.7944 38.4293 48.4768C39.571 47.7483 40.6755 48.6432 40.1618 49.8786C40.0932 50.0438 40.1862 50.2124 40.386 50.2124C41.6686 50.2124 43.2487 50.6756 43.874 51.297C44.2735 51.8965 45.0118 52.28 45.845 52.1979C46.7916 52.1052 47.5635 51.3941 47.6701 50.5148C47.7632 49.7446 47.3648 49.053 46.7298 48.6761L45.6228 49.5471ZM37.4657 43.9354C37.86 43.7891 38.4781 43.9075 38.4571 44.4767C38.452 44.6059 38.633 44.6059 38.6461 44.474C38.7641 43.6215 38.1882 43.3761 37.5854 43.4759C37.5105 43.1829 37.4492 42.9267 37.3794 42.6728C37.3238 42.4673 37.3033 42.0815 37.5411 42.0815C37.6693 42.0815 37.6178 42.4403 37.6057 42.595C37.5951 42.7306 37.6438 42.8127 37.754 42.8165C37.8226 42.8193 37.9083 42.7317 37.9595 42.6736C38.3044 42.2834 38.3845 41.6794 37.9804 41.3881C37.6422 41.1435 36.7954 41.3255 36.5627 41.6739C36.5274 41.5426 36.3595 41.326 36.279 41.2317C36.2007 41.1396 36.1803 41.0765 36.2886 40.9957C36.3397 40.9565 36.4941 40.8029 36.4941 40.6444C36.4941 40.5507 36.4213 40.3776 36.1904 40.3776C36.0082 40.3776 35.8057 40.5037 35.8057 40.7851C35.8057 40.8476 35.8209 40.9146 35.8612 40.9867C35.7461 40.9676 35.4333 40.9754 35.2727 41.0151L37.4934 47.1091C38.1291 46.7954 38.5952 46.2986 38.5952 45.7654C38.5952 45.311 37.9259 45.4617 37.6009 45.8162C37.4964 45.24 37.4034 44.708 37.3017 44.1778C37.274 44.0315 37.3483 43.9794 37.4657 43.9354ZM34.3255 39.7956L34.7921 41.0919C34.3926 41.187 33.7501 41.4782 33.7501 41.8639C33.7501 42.3775 34.6589 42.7119 35.1843 42.6717C35.1582 42.7889 35.1883 42.8933 35.27 42.9888C35.0793 42.9888 34.7195 43.0775 34.6014 43.2048C34.3228 42.9453 33.8869 42.8508 33.6797 43.0087C33.4715 43.168 33.4653 43.4376 33.6826 43.7424C33.8341 43.9534 33.8909 44.1616 33.7207 44.406C34.3539 44.406 34.1207 43.5827 34.3688 43.5827C34.3363 43.7424 34.3561 43.9271 34.4282 44.132C34.4759 44.2682 34.4759 44.3649 34.3942 44.496C34.1899 44.8226 33.8721 45.5727 33.9151 46.2511C33.7075 46.25 33.6019 46.1992 33.6751 45.9156C33.7023 45.8101 33.6372 45.7347 33.5509 45.8648C33.4555 46.0083 33.4095 46.2535 33.4095 46.3582C33.4095 46.9622 34.1293 47.0839 34.4038 46.9561C35.1984 47.7252 36.7592 47.52 37.2817 47.262L34.5338 39.7222C34.4776 39.5798 34.2762 39.6476 34.3255 39.7956ZM34.2304 46.0064C34.1735 45.6961 34.6054 45.1413 35.1548 44.6059C35.0379 44.9548 35.1105 45.556 35.3399 45.7631C34.9413 45.7631 34.4681 45.8379 34.2304 46.0064Z" fill="black"/>
<path d="M69.4134 36.3717L68.7837 34.3132H65.6354L65.0058 36.3717H63.032L66.0834 27.6897H68.3236L71.3871 36.3717H69.4134ZM67.7181 30.7653C67.6778 30.6281 67.6253 30.4545 67.5607 30.2446C67.4961 30.0347 67.4316 29.8208 67.367 29.6028C67.3024 29.3849 67.2499 29.1952 67.2096 29.0337C67.1692 29.1952 67.1127 29.397 67.04 29.6392C66.9755 29.8733 66.9109 30.0993 66.8463 30.3173C66.7898 30.5271 66.7454 30.6765 66.7131 30.7653L66.0955 32.7754H68.3478L67.7181 30.7653Z" fill="black"/>
<path d="M75.8905 29.7603V32.3031H78.4091V29.7603H80.2133V36.3717H78.4091V33.6472H75.8905V36.3717H74.0862V29.7603H75.8905Z" fill="black"/>
<path d="M86.5654 29.6271C87.4534 29.6271 88.1315 29.8208 88.5997 30.2083C89.076 30.5877 89.3141 31.173 89.3141 31.9641V36.3717H88.0548L87.7037 35.4756H87.6552C87.4696 35.7097 87.2758 35.9035 87.074 36.0568C86.8803 36.2102 86.6542 36.3192 86.3959 36.3838C86.1457 36.4564 85.8349 36.4928 85.4635 36.4928C85.0761 36.4928 84.7249 36.4201 84.4101 36.2748C84.1033 36.1214 83.8611 35.8914 83.6835 35.5846C83.5059 35.2698 83.4171 34.8742 83.4171 34.3979C83.4171 33.6956 83.6634 33.179 84.1558 32.848C84.6482 32.509 85.3868 32.3233 86.3717 32.291L87.522 32.2547V31.9641C87.522 31.6169 87.4292 31.3627 87.2435 31.2012C87.0659 31.0398 86.8157 30.959 86.4928 30.959C86.1699 30.959 85.8551 31.0075 85.5483 31.1043C85.2415 31.1931 84.9348 31.3061 84.628 31.4434L84.0347 30.2204C84.3899 30.0347 84.7814 29.8894 85.2092 29.7845C85.6452 29.6795 86.0972 29.6271 86.5654 29.6271ZM86.8197 33.3324C86.2385 33.3485 85.8349 33.4534 85.6088 33.6472C85.3828 33.8409 85.2698 34.0952 85.2698 34.41C85.2698 34.6845 85.3505 34.8823 85.512 35.0034C85.6734 35.1164 85.8833 35.1729 86.1416 35.1729C86.5291 35.1729 86.8561 35.0599 87.1224 34.8338C87.3888 34.5997 87.522 34.2728 87.522 33.853V33.3081L86.8197 33.3324Z" fill="black"/>
<path d="M98.8316 36.3717H97.0274V31.1164H95.3685C95.2877 32.0851 95.1868 32.9126 95.0657 33.5987C94.9527 34.2768 94.8074 34.8298 94.6298 35.2577C94.4603 35.6855 94.2423 36.0003 93.976 36.2021C93.7096 36.3959 93.3826 36.4928 92.9951 36.4928C92.7853 36.4928 92.5956 36.4766 92.426 36.4443C92.2565 36.412 92.1031 36.3636 91.9659 36.299V34.8581C92.0547 34.8904 92.1475 34.9186 92.2444 34.9428C92.3413 34.967 92.4422 34.9792 92.5471 34.9792C92.6601 34.9792 92.7651 34.9348 92.8619 34.846C92.9669 34.7572 93.0638 34.5997 93.1526 34.3737C93.2494 34.1477 93.3382 33.8369 93.419 33.4413C93.4997 33.0458 93.5723 32.5493 93.6369 31.952C93.7096 31.3465 93.7741 30.6159 93.8306 29.7603H98.8316V36.3717Z" fill="black"/>
<path d="M104.208 32.3758C104.208 32.513 104.2 32.6825 104.184 32.8843C104.176 33.0861 104.164 33.292 104.147 33.5019C104.139 33.7118 104.127 33.8974 104.111 34.0589C104.095 34.2203 104.083 34.3334 104.075 34.3979L107.126 29.7603H109.294V36.3717H107.55V33.7319C107.55 33.514 107.558 33.2758 107.574 33.0175C107.59 32.7511 107.607 32.5049 107.623 32.2789C107.647 32.0448 107.663 31.8672 107.671 31.7461L104.632 36.3717H102.464V29.7603H104.208V32.3758Z" fill="black"/>
<path d="M118.402 31.1164H116.235V36.3717H114.43V31.1164H112.263V29.7603H118.402V31.1164Z" fill="black"/>
<path d="M123.115 32.3758C123.115 32.513 123.107 32.6825 123.091 32.8843C123.083 33.0861 123.071 33.292 123.054 33.5019C123.046 33.7118 123.034 33.8974 123.018 34.0589C123.002 34.2203 122.99 34.3334 122.982 34.3979L126.033 29.7603H128.201V36.3717H126.457V33.7319C126.457 33.514 126.465 33.2758 126.481 33.0175C126.497 32.7511 126.513 32.5049 126.53 32.2789C126.554 32.0448 126.57 31.8672 126.578 31.7461L123.539 36.3717H121.371V29.7603H123.115V32.3758Z" fill="black"/>
<path d="M133.422 32.182C133.422 32.4646 133.491 32.6785 133.628 32.8238C133.773 32.9691 133.971 33.0417 134.221 33.0417C134.568 33.0417 134.891 33.0054 135.19 32.9328C135.489 32.852 135.787 32.7471 136.086 32.6179V29.7603H137.89V36.3717H136.086V33.7441C135.803 33.8974 135.48 34.0387 135.117 34.1679C134.754 34.289 134.342 34.3495 133.882 34.3495C133.196 34.3495 132.647 34.1719 132.235 33.8167C131.824 33.4615 131.618 32.9287 131.618 32.2183V29.7603H133.422V32.182Z" fill="black"/>
<path d="M144.256 29.6392C144.87 29.6392 145.394 29.7562 145.83 29.9903C146.274 30.2244 146.617 30.5635 146.859 31.0075C147.102 31.4515 147.223 31.9964 147.223 32.6422V33.514H142.96C142.977 34.0226 143.126 34.4221 143.408 34.7128C143.699 35.0034 144.099 35.1487 144.607 35.1487C145.035 35.1487 145.423 35.1083 145.77 35.0276C146.117 34.9388 146.476 34.8056 146.847 34.628V36.0205C146.524 36.182 146.181 36.299 145.818 36.3717C145.463 36.4524 145.031 36.4928 144.522 36.4928C143.861 36.4928 143.275 36.3717 142.767 36.1295C142.258 35.8792 141.859 35.5039 141.568 35.0034C141.277 34.5029 141.132 33.8732 141.132 33.1144C141.132 32.3394 141.261 31.6977 141.52 31.1891C141.786 30.6725 142.153 30.285 142.621 30.0267C143.09 29.7683 143.635 29.6392 144.256 29.6392ZM144.268 30.9227C143.921 30.9227 143.63 31.0357 143.396 31.2618C143.17 31.4878 143.037 31.8389 142.997 32.3152H145.528C145.528 32.0488 145.479 31.8107 145.382 31.6008C145.293 31.3909 145.156 31.2254 144.971 31.1043C144.785 30.9832 144.551 30.9227 144.268 30.9227Z" fill="black"/>
<path d="M153.123 36.4928C152.469 36.4928 151.912 36.3757 151.452 36.1416C150.992 35.8994 150.641 35.5281 150.399 35.0276C150.157 34.5271 150.036 33.8853 150.036 33.1023C150.036 32.295 150.173 31.6371 150.447 31.1286C150.722 30.62 151.101 30.2446 151.586 30.0024C152.078 29.7603 152.643 29.6392 153.281 29.6392C153.733 29.6392 154.124 29.6836 154.455 29.7724C154.794 29.8612 155.089 29.9661 155.339 30.0872L154.806 31.4797C154.524 31.3667 154.258 31.2739 154.007 31.2012C153.765 31.1286 153.523 31.0922 153.281 31.0922C152.966 31.0922 152.704 31.1689 152.494 31.3223C152.284 31.4676 152.126 31.6896 152.021 31.9883C151.925 32.2789 151.876 32.6462 151.876 33.0902C151.876 33.5261 151.929 33.8894 152.034 34.18C152.147 34.4625 152.308 34.6764 152.518 34.8217C152.728 34.959 152.982 35.0276 153.281 35.0276C153.66 35.0276 153.995 34.9792 154.286 34.8823C154.576 34.7773 154.859 34.6361 155.133 34.4585V35.9963C154.859 36.1739 154.568 36.299 154.262 36.3717C153.963 36.4524 153.583 36.4928 153.123 36.4928Z" fill="black"/>
<path d="M162.74 29.7603H164.725L162.11 32.9328L164.955 36.3717H162.909L160.209 33.0175V36.3717H158.405V29.7603H160.209V32.9691L162.74 29.7603Z" fill="black"/>
<path d="M170.364 29.6271C171.251 29.6271 171.93 29.8208 172.398 30.2083C172.874 30.5877 173.112 31.173 173.112 31.9641V36.3717H171.853L171.502 35.4756H171.453C171.268 35.7097 171.074 35.9035 170.872 36.0568C170.678 36.2102 170.452 36.3192 170.194 36.3838C169.944 36.4564 169.633 36.4928 169.262 36.4928C168.874 36.4928 168.523 36.4201 168.208 36.2748C167.901 36.1214 167.659 35.8914 167.482 35.5846C167.304 35.2698 167.215 34.8742 167.215 34.3979C167.215 33.6956 167.461 33.179 167.954 32.848C168.446 32.509 169.185 32.3233 170.17 32.291L171.32 32.2547V31.9641C171.32 31.6169 171.227 31.3627 171.042 31.2012C170.864 31.0398 170.614 30.959 170.291 30.959C169.968 30.959 169.653 31.0075 169.346 31.1043C169.04 31.1931 168.733 31.3061 168.426 31.4434L167.833 30.2204C168.188 30.0347 168.579 29.8894 169.007 29.7845C169.443 29.6795 169.895 29.6271 170.364 29.6271ZM170.618 33.3324C170.037 33.3485 169.633 33.4534 169.407 33.6472C169.181 33.8409 169.068 34.0952 169.068 34.41C169.068 34.6845 169.149 34.8823 169.31 35.0034C169.471 35.1164 169.681 35.1729 169.94 35.1729C170.327 35.1729 170.654 35.0599 170.921 34.8338C171.187 34.5997 171.32 34.2728 171.32 33.853V33.3081L170.618 33.3324Z" fill="black"/>
<path d="M177.713 36.3717H175.764L177.544 33.7562C177.318 33.6593 177.104 33.5301 176.902 33.3687C176.708 33.1992 176.551 32.9852 176.43 32.7269C176.309 32.4686 176.248 32.1618 176.248 31.8066C176.248 31.1447 176.499 30.6402 176.999 30.293C177.5 29.9379 178.141 29.7603 178.924 29.7603H182V36.3717H180.196V33.9136H179.203L177.713 36.3717ZM178.016 31.8188C178.016 32.0932 178.125 32.3112 178.343 32.4726C178.561 32.626 178.844 32.7027 179.191 32.7027H180.196V31.0317H178.961C178.638 31.0317 178.4 31.1124 178.246 31.2739C178.093 31.4272 178.016 31.6089 178.016 31.8188Z" fill="black"/>
<path d="M66.6647 53.4572C66.0108 53.4572 65.4538 53.3402 64.9936 53.1061C64.5335 52.8639 64.1824 52.4926 63.9402 51.9921C63.698 51.4916 63.5769 50.8498 63.5769 50.0668C63.5769 49.2595 63.7141 48.6016 63.9886 48.093C64.2631 47.5845 64.6425 47.2091 65.1268 46.9669C65.6193 46.7247 66.1843 46.6037 66.8221 46.6037C67.2741 46.6037 67.6657 46.6481 67.9966 46.7368C68.3357 46.8256 68.6303 46.9306 68.8806 47.0517L68.3478 48.4442C68.0652 48.3312 67.7989 48.2383 67.5486 48.1657C67.3064 48.093 67.0643 48.0567 66.8221 48.0567C66.5072 48.0567 66.2449 48.1334 66.035 48.2868C65.8251 48.4321 65.6677 48.6541 65.5628 48.9528C65.4659 49.2434 65.4175 49.6107 65.4175 50.0547C65.4175 50.4906 65.4699 50.8538 65.5749 51.1445C65.6879 51.427 65.8493 51.6409 66.0592 51.7862C66.2691 51.9235 66.5234 51.9921 66.8221 51.9921C67.2015 51.9921 67.5365 51.9436 67.8271 51.8468C68.1177 51.7418 68.4003 51.6006 68.6747 51.423V52.9608C68.4003 53.1384 68.1096 53.2635 67.8029 53.3362C67.5042 53.4169 67.1248 53.4572 66.6647 53.4572Z" fill="black"/>
<path d="M73.6896 49.3402C73.6896 49.4775 73.6815 49.647 73.6654 49.8488C73.6573 50.0506 73.6452 50.2565 73.629 50.4664C73.621 50.6762 73.6089 50.8619 73.5927 51.0234C73.5766 51.1848 73.5645 51.2978 73.5564 51.3624L76.6078 46.7247H78.7753V53.3362H77.0316V50.6964C77.0316 50.4785 77.0397 50.2403 77.0558 49.982C77.072 49.7156 77.0881 49.4694 77.1043 49.2434C77.1285 49.0093 77.1446 48.8317 77.1527 48.7106L74.1134 53.3362H71.9459V46.7247H73.6896V49.3402Z" fill="black"/>
<path d="M85.0986 53.4572C84.4447 53.4572 83.8877 53.3402 83.4276 53.1061C82.9674 52.8639 82.6163 52.4926 82.3741 51.9921C82.1319 51.4916 82.0108 50.8498 82.0108 50.0668C82.0108 49.2595 82.1481 48.6016 82.4225 48.093C82.697 47.5845 83.0764 47.2091 83.5607 46.9669C84.0532 46.7247 84.6183 46.6037 85.256 46.6037C85.708 46.6037 86.0996 46.6481 86.4305 46.7368C86.7696 46.8256 87.0642 46.9306 87.3145 47.0517L86.7817 48.4442C86.4992 48.3312 86.2328 48.2383 85.9825 48.1657C85.7403 48.093 85.4982 48.0567 85.256 48.0567C84.9412 48.0567 84.6788 48.1334 84.4689 48.2868C84.259 48.4321 84.1016 48.6541 83.9967 48.9528C83.8998 49.2434 83.8514 49.6107 83.8514 50.0547C83.8514 50.4906 83.9038 50.8538 84.0088 51.1445C84.1218 51.427 84.2832 51.6409 84.4931 51.7862C84.703 51.9235 84.9573 51.9921 85.256 51.9921C85.6354 51.9921 85.9704 51.9436 86.261 51.8468C86.5516 51.7418 86.8342 51.6006 87.1086 51.423V52.9608C86.8342 53.1384 86.5436 53.2635 86.2368 53.3362C85.9381 53.4169 85.5587 53.4572 85.0986 53.4572Z" fill="black"/>
<path d="M95.853 48.0809H93.6855V53.3362H91.8813V48.0809H89.7138V46.7247H95.853V48.0809Z" fill="black"/>
<path d="M101.428 46.6037C102.042 46.6037 102.567 46.7207 103.003 46.9548C103.447 47.1889 103.79 47.528 104.032 47.9719C104.274 48.4159 104.395 48.9608 104.395 49.6066V50.4785H100.133C100.149 50.987 100.298 51.3866 100.581 51.6772C100.871 51.9679 101.271 52.1132 101.78 52.1132C102.207 52.1132 102.595 52.0728 102.942 51.9921C103.289 51.9033 103.648 51.7701 104.02 51.5925V52.985C103.697 53.1464 103.354 53.2635 102.991 53.3362C102.635 53.4169 102.203 53.4572 101.695 53.4572C101.033 53.4572 100.448 53.3361 99.9391 53.094C99.4305 52.8437 99.0309 52.4684 98.7403 51.9679C98.4497 51.4674 98.3044 50.8377 98.3044 50.0789C98.3044 49.3039 98.4336 48.6622 98.6919 48.1536C98.9583 47.6369 99.3256 47.2495 99.7938 46.9911C100.262 46.7328 100.807 46.6037 101.428 46.6037ZM101.441 47.8872C101.093 47.8872 100.803 48.0002 100.569 48.2262C100.343 48.4523 100.21 48.8034 100.169 49.2797H102.7C102.7 49.0133 102.651 48.7752 102.555 48.5653C102.466 48.3554 102.329 48.1899 102.143 48.0688C101.957 47.9477 101.723 47.8872 101.441 47.8872Z" fill="black"/>
<path d="M115.938 46.7247V53.3362H114.255V50.091C114.255 49.7681 114.259 49.4533 114.267 49.1465C114.284 48.8397 114.304 48.5572 114.328 48.2989H114.292L112.463 53.3362H111.107L109.254 48.2868H109.206C109.238 48.5532 109.258 48.8397 109.266 49.1465C109.283 49.4452 109.291 49.7762 109.291 50.1394V53.3362H107.608V46.7247H110.163L111.809 51.205L113.48 46.7247H115.938Z" fill="black"/>
<path d="M122.286 46.5915C123.174 46.5915 123.852 46.7853 124.321 47.1728C124.797 47.5522 125.035 48.1374 125.035 48.9285V53.3362H123.776L123.424 52.4401H123.376C123.19 52.6742 122.997 52.8679 122.795 53.0213C122.601 53.1747 122.375 53.2837 122.117 53.3483C121.866 53.4209 121.556 53.4572 121.184 53.4572C120.797 53.4572 120.446 53.3846 120.131 53.2393C119.824 53.0859 119.582 52.8558 119.404 52.5491C119.227 52.2342 119.138 51.8387 119.138 51.3624C119.138 50.6601 119.384 50.1435 119.877 49.8125C120.369 49.4734 121.108 49.2878 122.092 49.2555L123.243 49.2192V48.9285C123.243 48.5814 123.15 48.3271 122.964 48.1657C122.787 48.0042 122.536 47.9235 122.214 47.9235C121.891 47.9235 121.576 47.9719 121.269 48.0688C120.962 48.1576 120.656 48.2706 120.349 48.4079L119.755 47.1849C120.111 46.9992 120.502 46.8539 120.93 46.749C121.366 46.644 121.818 46.5915 122.286 46.5915ZM122.541 50.2968C121.959 50.313 121.556 50.4179 121.33 50.6117C121.104 50.8054 120.991 51.0597 120.991 51.3745C120.991 51.649 121.071 51.8468 121.233 51.9679C121.394 52.0809 121.604 52.1374 121.862 52.1374C122.25 52.1374 122.577 52.0244 122.843 51.7983C123.11 51.5642 123.243 51.2373 123.243 50.8175V50.2726L122.541 50.2968Z" fill="black"/>
</svg>
