<svg width="200" height="80" viewBox="0 0 200 80" fill="none" xmlns="http://www.w3.org/2000/svg">
<path fill-rule="evenodd" clip-rule="evenodd" d="M39.36 20C50.609 20 59.725 28.955 59.725 40C59.725 51.045 50.609 60 39.36 60C28.116 60 19 51.045 19 40C19 28.955 28.116 20 39.36 20ZM39.36 21.545C28.983 21.545 20.574 29.806 20.574 40C20.574 50.192 28.984 58.455 39.36 58.455C49.739 58.455 58.15 50.192 58.15 40C58.15 29.806 49.739 21.545 39.36 21.545ZM40.593 26.464C40.593 26.464 41.038 27.256 43.111 26.894C44.826 26.595 45.774 27.031 45.774 27.591C45.774 27.591 46.994 27.733 47.539 28.079C48.085 28.424 47.506 29.284 47.506 29.284C47.424 29.125 47.307 29.034 46.977 28.964C46.977 28.964 45.659 28.631 45.2 29.47C44.197 29.553 43.332 30.139 42.924 30.936C42.902 30.983 42.521 31.721 42.757 33.208C42.882 33.99 43.277 34.652 43.839 35.218C44.084 35.466 44.389 35.624 44.759 35.583C45.346 35.517 45.833 35.243 46.251 34.837C46.48 34.613 46.551 34.361 46.376 34.07C46.352 34.03 46.339 33.988 46.323 33.944C45.803 32.718 46.238 31.635 47.119 30.993C47.766 30.523 48.514 30.469 49.273 30.573C54.281 31.263 54.45 36.208 54.45 37.733V38.371C54.456 42.347 54.518 45.138 54.548 45.698C54.598 46.593 54.918 46.78 55.12 46.922C54.801 47.138 52.195 46.337 51.568 45.576C51.526 45.526 51.441 45.503 51.374 45.488C49.822 45.133 49.819 43.549 49.79 43.068C48.49 43.068 47.987 41.682 47.848 41.32C47.734 41.01 47.648 40.648 47.614 40.32C47.614 40.994 46.594 41.572 45.494 40.499C45.494 41.604 44.147 41.409 43.476 40.753C43.416 40.977 43.045 41.547 43.045 41.547C43.815 41.682 44.162 41.847 44.526 42.161C45.379 42.894 45.476 44.115 45.476 44.745C45.476 44.745 46.65 45.867 47.116 46.282C47.254 46.407 47.406 46.517 47.556 46.628C48.761 45.311 49.164 45.826 49.161 45.828C50.051 45.478 50.547 46.1 50.351 46.416C50.144 46.186 49.806 46.253 49.603 46.433L49.735 46.459C50.785 46.695 50.515 47.499 50.201 47.672C50.201 47.424 50.122 47.149 49.744 47.124C49.762 47.504 49.5 47.571 49.25 47.581C48.654 47.605 47.657 47.633 47.352 47.923C47.179 48.088 47.262 48.573 47.075 48.737C46.92 48.874 46.755 48.857 46.668 48.859C46.64 49.036 46.694 49.238 46.924 49.474C46.058 49.545 45.408 48.799 45.838 48.401C46.018 48.234 46.625 47.672 46.655 47.431C46.695 47.169 46.414 46.879 46.219 46.709C45.801 46.346 45.351 46.021 44.909 45.684C44.779 45.584 44.627 45.496 44.478 45.415C44.3421 45.3424 44.1832 45.3255 44.035 45.368C43.703 45.47 43.708 45.462 43.622 45.406C43.295 45.195 42.703 44.72 41.472 44.588C41.555 44.639 41.612 44.692 41.658 44.754C41.725 44.844 41.77 44.952 41.841 45.099C41.921 45.265 41.983 45.437 42.054 45.604C42.85 47.442 43.639 49.249 44.432 51.088C44.696 51.696 44.462 52.228 43.82 52.521C43.351 52.735 42.819 52.621 42.504 52.178C42.595 52.483 42.638 52.744 42.509 52.998C42.3861 53.2469 42.1746 53.441 41.916 53.542C41.66 53.652 41.357 53.692 41.077 53.637C40.792 53.581 40.604 53.397 40.457 53.127C40.433 53.727 40.029 54.167 39.36 54.167C38.691 54.167 38.287 53.727 38.263 53.127C38.116 53.397 37.927 53.581 37.643 53.637C37.3598 53.6889 37.0675 53.6558 36.803 53.542C36.5443 53.4406 36.3329 53.2462 36.21 52.997C36.082 52.744 36.125 52.483 36.215 52.178C35.901 52.62 35.369 52.735 34.9 52.521C34.258 52.229 34.024 51.696 34.287 51.088C35.081 49.248 35.869 47.442 36.665 45.604C36.737 45.437 36.798 45.265 36.878 45.099C36.949 44.952 36.994 44.843 37.061 44.754C37.1118 44.6869 37.1753 44.6305 37.248 44.588C36.016 44.72 35.424 45.195 35.098 45.406C35.011 45.462 35.017 45.47 34.684 45.368C34.5361 45.3258 34.3777 45.3426 34.242 45.415C34.092 45.495 33.942 45.585 33.811 45.684C33.369 46.021 32.918 46.346 32.501 46.709C32.306 46.879 32.025 47.169 32.064 47.43C32.094 47.672 32.701 48.234 32.882 48.401C33.312 48.799 32.662 49.545 31.795 49.474C32.026 49.238 32.08 49.036 32.051 48.859C31.965 48.857 31.8 48.874 31.644 48.737C31.457 48.573 31.541 48.087 31.368 47.923C31.063 47.633 30.065 47.605 29.47 47.581C29.22 47.571 28.957 47.505 28.976 47.124C28.597 47.149 28.518 47.424 28.518 47.673C28.193 47.493 27.913 46.629 29.117 46.433L29.052 46.383C28.848 46.243 28.555 46.209 28.368 46.416C28.173 46.1 28.668 45.477 29.558 45.828C29.556 45.826 29.958 45.311 31.163 46.628C31.314 46.517 31.465 46.407 31.603 46.282C32.069 45.867 33.243 44.745 33.243 44.745C33.243 44.115 33.34 42.894 34.193 42.161C34.557 41.848 34.905 41.682 35.674 41.547C35.674 41.547 35.303 40.977 35.244 40.753C34.573 41.408 33.224 41.604 33.224 40.499C32.126 41.572 31.105 40.994 31.105 40.319C31.0673 40.6608 30.9887 40.9969 30.871 41.32C30.732 41.682 30.229 43.067 28.93 43.067C28.9 43.549 28.898 45.133 27.345 45.487C27.279 45.503 27.193 45.525 27.151 45.577C26.524 46.337 23.918 47.137 23.599 46.922C23.801 46.78 24.121 46.592 24.172 45.698C24.204 45.108 24.27 42.047 24.27 37.734C24.27 36.208 24.438 31.262 29.446 30.574C30.206 30.469 30.953 30.524 31.601 30.993C32.481 31.635 32.916 32.718 32.397 33.943C32.381 33.988 32.367 34.031 32.344 34.07C32.168 34.361 32.24 34.613 32.469 34.837C32.887 35.242 33.374 35.517 33.959 35.583C34.329 35.624 34.636 35.466 34.881 35.217C35.443 34.652 35.824 33.988 35.961 33.208C36.223 31.727 35.817 30.983 35.795 30.937C35.388 30.139 34.523 29.554 33.52 29.47C33.06 28.631 31.742 28.964 31.742 28.964C31.412 29.034 31.296 29.125 31.214 29.284C31.214 29.284 30.634 28.424 31.18 28.079C31.726 27.733 32.945 27.591 32.945 27.591C32.945 27.031 33.894 26.595 35.608 26.894C37.681 27.256 38.126 26.464 38.126 26.464C38.214 27.433 37.456 27.932 37.213 28.067C37.999 28.901 39.098 30.566 39.36 32.929C39.622 30.566 40.72 28.901 41.507 28.067C41.265 27.932 40.506 27.433 40.593 26.464ZM155.794 36.169C156.838 36.169 157.985 36.365 159.271 37.037L158.763 38.516H158.524C157.823 37.391 156.838 36.936 155.734 36.936C153.378 36.936 152.253 39.168 152.253 41.339C152.253 43.847 153.666 45.801 156.154 45.801C156.975 45.801 157.722 45.684 158.886 44.439L159.064 44.656L158.826 45.624C157.862 46.257 156.775 46.572 155.53 46.572C152.396 46.572 150.345 44.42 150.345 41.379C150.345 38.2 152.557 36.169 155.794 36.169ZM133.798 36.169C136.855 36.169 138.765 38.339 138.765 41.299C138.765 44.321 136.771 46.572 133.619 46.572C130.523 46.572 128.592 44.342 128.592 41.577C128.592 38.3 130.723 36.168 133.798 36.168V36.169ZM85.111 36.169C87.221 36.169 88.687 37.193 88.687 39.661V44.557C88.687 45.565 88.907 45.801 89.328 45.801C89.472 45.801 89.693 45.761 89.812 45.721L89.932 46.197C89.4623 46.4295 88.9479 46.5574 88.424 46.572C87.761 46.572 87.34 46.276 87.179 45.702L87.059 45.27C85.973 46.119 84.788 46.572 83.803 46.572C81.973 46.572 80.785 45.624 80.785 43.965C80.785 42.188 82.135 41.358 83.982 41.025L86.029 40.649C86.717 40.53 87.081 40.332 87.081 39.839C87.081 37.687 86.155 37.135 84.627 37.135C83.442 37.135 82.555 37.47 81.914 38.755H81.671V37.529C82.457 36.582 83.901 36.169 85.111 36.169ZM145.64 36.169C146.689 36.169 147.832 36.365 149.118 37.037L148.617 38.516H148.375C147.67 37.391 146.689 36.936 145.581 36.936C143.228 36.936 142.103 39.168 142.103 41.339C142.103 43.847 143.509 45.801 146.002 45.801C146.829 45.801 147.572 45.684 148.736 44.439L148.918 44.656L148.676 45.624C147.709 46.257 146.629 46.572 145.381 46.572C142.243 46.572 140.193 44.42 140.193 41.379C140.193 38.2 142.405 36.169 145.64 36.169ZM78.502 32C78.463 32.238 78.442 32.613 78.442 32.71C78.442 32.85 78.485 33.166 78.502 33.383C77.335 33.224 75.406 33.107 74.807 33.107C74.387 33.107 72.757 33.145 71.873 33.224V38.181H72.896C74.989 38.181 79.393 38.576 79.393 42.149C79.393 45.05 76.918 46.374 73.664 46.355C73.3 46.355 71.936 46.296 71.066 46.296C70.687 46.296 70.226 46.316 69.902 46.356C70.025 44.182 70.064 41.181 70.064 38.693V38.199C70.061 35.992 70.036 33.009 69.902 32C71.189 32.06 73.317 32.178 73.784 32.178C74.905 32.178 77.194 32.079 78.502 32ZM181.667 36.365C181.509 37.845 181.487 40.332 181.487 41.358C181.487 42.188 181.509 44.854 181.667 46.355C181.36 46.3159 181.051 46.2962 180.741 46.296C180.401 46.296 179.997 46.316 179.7 46.355C179.847 44.985 179.874 42.643 179.878 41.615V41.358C179.878 40.332 179.861 39.07 179.84 38.653C178.473 40.017 174.851 44.676 173.705 46.355C173.515 46.314 173.321 46.2942 173.126 46.296C172.912 46.3068 172.698 46.3265 172.485 46.355C172.629 44.985 172.659 42.643 172.663 41.615V41.358C172.663 40.351 172.642 37.846 172.485 36.365C172.825 36.384 173.263 36.423 173.505 36.423C173.726 36.423 174.15 36.383 174.452 36.365C174.29 37.845 174.272 40.332 174.272 41.358C174.272 42.188 174.29 43.352 174.311 43.905C175.416 42.585 179.353 37.668 180.299 36.365C180.52 36.403 180.66 36.423 180.902 36.423C181.021 36.423 181.446 36.383 181.667 36.365ZM100.484 36.365C100.331 37.768 100.304 40.073 100.302 41.185V41.358C100.302 42.188 100.322 44.853 100.484 46.355C100.177 46.316 99.8676 46.2966 99.558 46.297C99.218 46.297 98.815 46.316 98.518 46.355C98.674 44.853 98.696 42.188 98.696 41.558C97.813 41.496 96.606 41.418 96.144 41.418C95.597 41.418 94.254 41.456 93.448 41.517V41.715C93.452 42.607 93.482 44.974 93.63 46.355C93.3229 46.3161 93.0136 46.2967 92.704 46.297C92.364 46.297 91.961 46.316 91.659 46.355C91.803 44.984 91.834 42.643 91.839 41.615V41.358C91.839 40.351 91.817 37.846 91.659 36.365C91.999 36.385 92.445 36.423 92.687 36.423C92.907 36.423 93.329 36.384 93.63 36.365C93.469 37.863 93.448 40.351 93.448 40.451C94.293 40.491 95.516 40.531 96.164 40.531C96.827 40.531 98.093 40.491 98.696 40.451V40.393C98.692 39.993 98.664 37.743 98.517 36.365C98.854 36.385 99.299 36.423 99.537 36.423C99.762 36.423 100.182 36.384 100.484 36.365ZM111.678 36.365L106.875 40.59C107.481 41.3 110.671 44.834 112.12 46.355C111.58 46.315 111.197 46.297 110.917 46.297C110.552 46.297 110.009 46.316 109.588 46.355C108.845 45.21 106.573 42.585 105.328 41.24H105.006V41.455C105.01 42.424 105.036 44.974 105.181 46.355C104.875 46.3159 104.567 46.2965 104.259 46.297C103.923 46.297 103.519 46.316 103.215 46.355C103.38 44.853 103.401 42.188 103.401 41.358C103.401 40.351 103.38 37.846 103.215 36.365C103.558 36.385 104 36.423 104.242 36.423C104.459 36.423 104.884 36.384 105.182 36.365C105.024 37.845 105.007 40.351 105.007 40.709H105.329C105.992 40.709 109.389 36.916 109.711 36.365C109.991 36.385 110.451 36.423 110.693 36.423C110.896 36.423 111.38 36.384 111.678 36.365ZM123.13 32C126.849 32 128.297 33.107 128.297 35.594C128.297 38.814 125.542 39.839 122.271 39.839C122.089 39.839 121.321 39.799 120.938 39.76V43.175C120.938 44.162 120.98 45.367 121.104 46.355C120.394 46.278 119.678 46.278 118.968 46.355C119.091 44.182 119.133 41.181 119.133 38.693C119.133 36.463 119.112 33.086 118.968 32C119.634 32.02 120.539 32.06 121.001 32.06C121.703 32.06 122.611 32 123.13 32ZM170.286 36.365C170.122 37.845 170.101 40.332 170.101 41.358C170.101 42.188 170.122 44.854 170.286 46.355C169.979 46.316 169.67 46.2963 169.361 46.296C169.017 46.296 168.618 46.316 168.313 46.355C168.467 44.919 168.493 42.418 168.495 41.477V41.358C168.495 40.332 168.474 39.07 168.456 38.653C167.085 40.017 163.468 44.676 162.325 46.355C162.134 46.3143 161.939 46.2945 161.743 46.296C161.527 46.307 161.312 46.3266 161.098 46.355C161.252 44.919 161.278 42.418 161.28 41.477V41.358C161.28 40.351 161.259 37.846 161.098 36.365C161.441 36.384 161.879 36.423 162.121 36.423C162.342 36.423 162.763 36.383 163.068 36.365C162.924 37.69 162.895 39.82 162.89 40.988L162.889 41.358C162.889 42.188 162.907 43.352 162.928 43.905C164.032 42.585 167.973 37.668 168.919 36.365C169.136 36.403 169.277 36.423 169.519 36.423C169.638 36.423 170.058 36.383 170.286 36.365ZM133.738 36.936C131.568 36.936 130.502 39.168 130.502 41.516C130.502 43.748 131.449 45.801 133.577 45.801C135.628 45.801 136.855 43.865 136.855 41.221C136.855 39.089 136.01 36.936 133.738 36.936ZM87.081 41.26L85.752 41.457C84.304 41.675 82.695 42.167 82.695 43.671C82.695 44.814 83.34 45.427 84.645 45.427C85.451 45.427 86.254 45.15 87.081 44.303V41.26ZM71.873 39.227V45.21C72.395 45.229 73.016 45.25 73.58 45.25C75.953 45.25 77.335 44.161 77.335 42.13C77.335 39.938 75.69 39.227 71.873 39.227ZM122.73 33.107C122.39 33.107 121.223 33.127 120.938 33.166V38.712C121.184 38.755 121.583 38.792 121.783 38.792C124.599 38.792 126.249 37.687 126.249 35.593C126.249 33.639 124.679 33.107 122.73 33.107Z" fill="black"/>
</svg>
