<svg width="200" height="80" viewBox="0 0 200 80" fill="none" xmlns="http://www.w3.org/2000/svg">
<path d="M57.2564 43.3582C60.7866 43.3582 62.4588 46.0118 62.4588 49.4568C62.4588 52.9018 60.7866 55.5554 57.2564 55.5554C53.7261 55.5554 52.0536 52.9018 52.0536 49.4568C52.0536 46.0117 53.6797 43.3582 57.2564 43.3582Z" fill="black"/>
<path fill-rule="evenodd" clip-rule="evenodd" d="M101.011 65H20V33.7618H51.1686V15H101.011V65ZM57.2564 40.332C51.961 40.332 48.8487 44.01 48.8487 49.4104C48.8488 54.8107 51.961 58.6279 57.2564 58.6279C62.5517 58.6279 65.664 54.8106 65.6641 49.4104C65.6641 44.0101 62.5982 40.3321 57.2564 40.332ZM36.9573 55.1363H36.2605L33.0553 40.7975H27.1561V58.2092H30.2215V43.7773H30.8719L33.9841 58.116H39.2333L42.3918 43.7773H43.0422V58.116H46.1544V40.7511H40.2089L36.9573 55.1363ZM68.358 58.1624H79.2279V55.1363H71.5169V50.8069H78.1592V47.9203H71.5169V43.8236H79.2279V40.7975H68.358V58.1624ZM86.6137 48.9445L81.4108 58.1624H84.7555L88.5181 51.2724L92.5592 58.1624H95.9039L90.5153 49.0377L95.5787 40.7511H92.234L88.7039 46.943L85.1271 40.7511H81.7824L86.6137 48.9445Z" fill="black"/>
<path fill-rule="evenodd" clip-rule="evenodd" d="M113.181 52.0113H109.14V53.501H111.137C112.624 53.501 113.506 54.1527 113.506 55.7821C113.506 57.3184 112.577 58.2031 111.137 58.2031H107.747V50.7076H113.181V52.0113ZM109.14 56.853H110.951C111.648 56.853 112.159 56.4804 112.159 55.7821C112.159 55.0838 111.648 54.7579 110.951 54.7579H109.14V56.853Z" fill="black"/>
<path d="M115.783 56.8994H116.015L117.919 50.7076H120.52V58.1563H119.127V51.9645H118.895L117.037 58.1563H114.389V50.7076H115.783V56.8994Z" fill="black"/>
<path fill-rule="evenodd" clip-rule="evenodd" d="M124.933 50.7076C126.466 50.7076 127.535 51.6387 127.535 53.2214C127.535 54.8043 126.466 55.7356 124.933 55.7357H123.215V58.1563H121.821V50.7076H124.933ZM123.215 54.4788H124.933C125.677 54.4787 126.141 53.9199 126.141 53.175C126.141 52.4302 125.723 51.9646 124.933 51.9645H123.215V54.4788Z" fill="black"/>
<path d="M131.018 53.6405H131.576V50.7076H132.97V53.6405H133.527L135.199 50.7076H136.871L134.595 54.1992L136.918 58.1563H135.292L133.527 54.8975H132.97V58.1563H131.576V54.8975H131.018L129.253 58.1563H127.581L129.904 54.1992L127.627 50.7076H129.3L131.018 53.6405Z" fill="black"/>
<path fill-rule="evenodd" clip-rule="evenodd" d="M144.304 58.1563H142.817L142.213 56.2476H139.24L138.637 58.1563H137.243L139.751 50.7076H141.795L144.304 58.1563ZM139.659 54.9906H141.795L140.866 52.0113H140.541L139.659 54.9906Z" fill="black"/>
<path fill-rule="evenodd" clip-rule="evenodd" d="M120.242 40.6051C122.564 40.6051 123.912 42.2348 123.912 44.4694C123.911 46.6574 122.564 48.3333 120.242 48.3333C117.919 48.3332 116.572 46.6574 116.572 44.4694C116.572 42.2814 117.919 40.6052 120.242 40.6051ZM120.195 41.9088C118.662 41.9088 118.059 43.0728 118.059 44.4694C118.012 45.866 118.709 47.0764 120.288 47.0764C121.821 47.0764 122.471 45.9125 122.471 44.4694C122.471 43.0262 121.728 41.9088 120.195 41.9088Z" fill="black"/>
<path d="M128.185 40.6051C129.625 40.6051 130.693 41.3036 131.204 42.607L129.857 43.1657C129.532 42.3743 128.975 41.8624 128.092 41.8624C126.559 41.8624 126.095 43.0726 126.095 44.4226C126.095 45.8193 126.652 47.0296 128.185 47.0296C129.114 47.0761 129.672 46.6108 129.904 45.7263L131.297 45.9127C130.972 47.4954 129.671 48.3333 128.138 48.3333C125.77 48.3332 124.655 46.6574 124.655 44.4694C124.655 42.2813 125.816 40.6051 128.185 40.6051Z" fill="black"/>
<path fill-rule="evenodd" clip-rule="evenodd" d="M142.26 40.6051C144.582 40.6051 145.929 42.2348 145.929 44.4694C145.929 46.6574 144.582 48.3333 142.26 48.3333C139.937 48.3333 138.637 46.6574 138.637 44.4694C138.637 42.2813 139.937 40.6051 142.26 40.6051ZM142.167 41.9088C140.634 41.9088 140.03 43.0728 140.03 44.4694C140.03 45.866 140.727 47.0764 142.26 47.0764C143.793 47.0763 144.443 45.9125 144.443 44.4694C144.443 43.0262 143.7 41.9088 142.167 41.9088Z" fill="black"/>
<path d="M156.892 40.6051C158.332 40.6051 159.4 41.3036 159.911 42.607L158.564 43.1657C158.239 42.3743 157.681 41.8624 156.799 41.8624C155.266 41.8624 154.802 43.0726 154.802 44.4226C154.802 45.8193 155.359 47.0296 156.892 47.0296C157.867 47.0762 158.378 46.6108 158.611 45.7263L160.004 45.9127C159.679 47.4954 158.378 48.3333 156.846 48.3333C154.477 48.3333 153.361 46.6574 153.361 44.4694C153.361 42.2813 154.523 40.6051 156.892 40.6051Z" fill="black"/>
<path d="M111.695 46.9368H111.881L113.042 40.745H115.69V48.1938H114.296V42.0483H114.11L112.949 48.2402H110.58L109.326 42.0483H109.14V48.2402H107.747V40.745H110.394L111.695 46.9368Z" fill="black"/>
<path fill-rule="evenodd" clip-rule="evenodd" d="M181 48.2402H179.607V45.354H177.981C177.331 45.354 177.052 45.5867 176.959 46.285L176.634 48.1938H175.287L175.612 46.1918C175.705 45.54 176.03 45.0747 176.634 44.7953C175.844 44.4695 175.333 43.7245 175.333 42.8866C175.333 41.4899 176.634 40.7914 177.888 40.7914H181V48.2402ZM178.074 42.0483C177.33 42.0483 176.82 42.2812 176.82 43.0725C176.82 43.8639 177.33 44.0967 178.074 44.0967H179.7V42.0483H178.074Z" fill="black"/>
<path d="M133.759 43.6312H134.503L136.779 40.745H138.497L135.71 44.1899L138.59 48.1938H136.871L134.503 44.9349H133.759V48.1938H132.366V40.745H133.759V43.6312Z" fill="black"/>
<path fill-rule="evenodd" clip-rule="evenodd" d="M150.249 40.745C151.457 40.745 152.433 41.2571 152.433 42.5606C152.433 43.4451 152.107 44.0969 151.318 44.3762C152.154 44.609 152.618 45.2609 152.618 46.1454C152.618 47.4954 151.643 48.1937 150.342 48.1938H146.858V40.745H150.249ZM148.252 46.9368H150.157C150.807 46.9368 151.318 46.7037 151.318 46.0055C151.317 45.3073 150.853 45.0281 150.157 45.0281H148.252V46.9368ZM148.252 43.7708H150.063C150.667 43.7708 151.132 43.4917 151.132 42.8866C151.132 42.2348 150.714 42.002 150.063 42.002H148.252V43.7708Z" fill="black"/>
<path d="M162.513 43.6312H163.256L165.532 40.745H167.25L164.51 44.2367L167.39 48.1938H165.671L163.302 44.9349H162.559V48.1938H161.119V40.745H162.513V43.6312Z" fill="black"/>
<path fill-rule="evenodd" clip-rule="evenodd" d="M174.636 48.1938H173.15L172.546 46.285H169.573L168.969 48.1938H167.576L170.084 40.745H172.128L174.636 48.1938ZM169.991 45.0281H172.128L171.199 42.0483H170.874L169.991 45.0281Z" fill="black"/>
</svg>
