<svg width="200" height="80" viewBox="0 0 200 80" fill="none" xmlns="http://www.w3.org/2000/svg">
<path d="M78.8015 30.918C78.2701 30.9235 77.7412 30.8452 77.2342 30.686C76.774 30.5409 76.356 30.2862 76.0163 29.9438C75.6581 29.5686 75.388 29.1184 75.2256 28.626C75.0205 27.9901 74.924 27.3242 74.9401 26.6563V26.4314C74.9265 25.7963 75.0274 25.1639 75.238 24.5645C75.4106 24.0807 75.6906 23.6422 76.057 23.2821C76.407 22.9491 76.8267 22.698 77.2857 22.547C77.774 22.386 78.2855 22.3058 78.7997 22.3096C79.2582 22.3068 79.7152 22.3628 80.1595 22.4761C80.562 22.5771 80.9412 22.7545 81.2764 22.9987C81.6042 23.2445 81.8721 23.5612 82.0601 23.925C82.2735 24.3583 82.3943 24.8312 82.4146 25.3137H80.2145C80.1841 25.1136 80.1199 24.9202 80.0248 24.7416C79.9439 24.5953 79.8348 24.4665 79.7039 24.3625C79.5776 24.2638 79.433 24.191 79.2784 24.1482C79.122 24.1045 78.9603 24.0824 78.7979 24.0827C78.5721 24.0802 78.348 24.1224 78.1384 24.2067C77.9318 24.2934 77.7515 24.4326 77.6154 24.6105C77.4536 24.8286 77.3367 25.0767 77.2715 25.3403C77.1819 25.6969 77.1402 26.0638 77.1474 26.4314V26.69C77.1388 27.08 77.1848 27.4693 77.2839 27.8466C77.3536 28.1198 77.4739 28.3775 77.6385 28.6065C77.7736 28.7879 77.9539 28.9308 78.1615 29.021C78.3608 29.1042 78.5748 29.1463 78.7908 29.145C79.1374 29.1628 79.4795 29.0601 79.7588 28.8545C80.0236 28.6142 80.1834 28.2796 80.2038 27.9228H82.4129C82.3983 28.4082 82.2829 28.8853 82.0742 29.3239C81.8932 29.6886 81.6291 30.0059 81.303 30.2502C80.9698 30.4925 80.5921 30.6671 80.1914 30.7639C79.7362 30.8718 79.2694 30.9236 78.8015 30.918Z" fill="black"/>
<path d="M83.8259 22.4567H85.964V27.441L89.2297 22.4567H91.1905V30.7639H89.0524V25.7796L85.785 30.7639H83.8259V22.4567Z" fill="black"/>
<path d="M94.9668 24.2102H92.4138V22.4567H99.6667V24.2102H97.1049V30.7639H94.9668V24.2102Z" fill="black"/>
<path d="M102.783 30.918C102.697 30.918 102.606 30.918 102.528 30.9056C102.454 30.8993 102.381 30.8875 102.308 30.8702V29.0989L102.498 29.122C102.573 29.1307 102.648 29.1348 102.723 29.1344C102.866 29.1365 103.009 29.1265 103.15 29.1043C103.247 29.0898 103.34 29.0555 103.423 29.0033C103.496 28.9541 103.557 28.8893 103.601 28.8138C103.655 28.7202 103.699 28.621 103.732 28.518L100.408 22.4567H102.569L104.778 26.6705L106.512 22.4567H108.602L105.824 28.7465C105.671 29.0969 105.493 29.436 105.292 29.7614C105.132 30.0194 104.926 30.2468 104.686 30.4327C104.447 30.611 104.174 30.7382 103.884 30.8064C103.523 30.8873 103.154 30.9248 102.783 30.918Z" fill="black"/>
<path d="M113.414 29.1698H110.636L110.065 30.7639H108.045L111.074 22.4567H113.212L116.242 30.7639H113.985L113.414 29.1698ZM111.24 27.5314H112.807L112.024 25.0622L111.24 27.5314Z" fill="black"/>
<path d="M123.571 30.7639H117.346V22.4567H119.484V29.0104H122.335V22.4567H124.473V29.0104H125.423V32.3067H123.571V30.7639Z" fill="black"/>
<path d="M126.707 22.4567H128.845V27.441L132.111 22.4567H134.072V30.7639H131.933V25.7796L128.666 30.7639H126.707V22.4567Z" fill="black"/>
<path d="M139.63 30.918C139.101 30.9208 138.576 30.8407 138.073 30.6806C137.593 30.5288 137.152 30.2716 136.784 29.9278C136.399 29.5584 136.101 29.1083 135.912 28.61C135.682 27.9868 135.573 27.3256 135.591 26.6616V26.4314C135.576 25.7942 135.685 25.1603 135.912 24.5644C136.102 24.0765 136.4 23.6381 136.784 23.282C137.156 22.9478 137.596 22.6972 138.073 22.547C139.086 22.2305 140.171 22.2305 141.184 22.547C141.662 22.6972 142.101 22.9479 142.473 23.282C142.858 23.6378 143.157 24.0763 143.347 24.5644C143.575 25.163 143.684 25.8001 143.668 26.4402V26.6776C143.686 27.3415 143.577 28.0027 143.347 28.626C143.158 29.1243 142.86 29.5744 142.475 29.9438C142.107 30.2875 141.667 30.5447 141.186 30.6966C140.682 30.8513 140.157 30.926 139.63 30.918ZM139.63 29.1467C139.864 29.1472 140.097 29.1089 140.319 29.0334C140.544 28.955 140.745 28.8188 140.901 28.6384C141.086 28.418 141.224 28.1617 141.305 27.8856C141.418 27.4926 141.47 27.0846 141.459 26.6758V26.4314C141.469 26.0436 141.417 25.6567 141.305 25.2854C141.223 25.0192 141.085 24.7735 140.901 24.5644C140.742 24.3917 140.542 24.2629 140.319 24.1907C139.871 24.0485 139.39 24.0485 138.942 24.1907C138.718 24.2627 138.517 24.3914 138.358 24.5644C138.176 24.7747 138.041 25.021 137.961 25.2871C137.849 25.6584 137.797 26.0453 137.807 26.4331V26.6705C137.796 27.0793 137.848 27.4873 137.961 27.8803C138.04 28.1577 138.175 28.4158 138.358 28.6384C138.515 28.8175 138.715 28.9524 138.94 29.0298C139.162 29.1035 139.395 29.14 139.63 29.1379V29.1467Z" fill="black"/>
<path d="M145.189 22.4567H147.328V25.6131H150.416V22.4567H152.554V30.7639H150.416V27.3702H147.328V30.7639H145.189V22.4567Z" fill="black"/>
<path d="M154.371 22.4567H156.509V25.6131H159.591V22.4567H161.736V30.7639H159.591V27.3702H156.509V30.7639H154.371V22.4567Z" fill="black"/>
<path d="M163.553 22.4567H165.691V25.2092H166.702C167.858 25.2092 168.711 25.4584 169.262 25.9567C169.813 26.455 170.088 27.1317 170.088 27.9866C170.088 28.8415 169.813 29.5181 169.262 30.0165C168.711 30.5148 167.857 30.7639 166.7 30.7639H163.553V22.4567ZM166.464 29.0104C166.963 29.0104 167.323 28.9153 167.546 28.7252C167.757 28.5389 167.878 28.2709 167.878 27.9892C167.878 27.7076 167.757 27.4396 167.546 27.2533C167.323 27.0632 166.963 26.9681 166.464 26.9681H165.691V29.0068L166.464 29.0104ZM170.68 22.4567H172.818V30.7639H170.68V22.4567Z" fill="black"/>
<path d="M174.635 22.4566H176.773V27.441L180.039 22.4566H182V30.7639H179.862V25.7795L176.594 30.7639H174.635V22.4566ZM178.318 21.9819C177.479 21.9819 176.873 21.8119 176.5 21.4718C176.128 21.1317 175.942 20.6275 175.942 19.9591H177.674C177.674 20.2839 177.724 20.5035 177.823 20.618C178.111 20.8477 178.52 20.8477 178.809 20.618C178.908 20.5 178.958 20.2803 178.958 19.9591H180.688C180.688 20.6239 180.502 21.1264 180.13 21.4665C179.757 21.8066 179.153 21.9784 178.318 21.9819Z" fill="black"/>
<path d="M81.4626 44.7569H75.238V36.4497H77.3761V43.0034H80.2269V36.4497H82.365V43.0034H83.3153V46.3032H81.4626V44.7569Z" fill="black"/>
<path d="M84.5972 36.4497H90.6552V38.0881H86.7371V39.7141H90.3006V41.2569H86.7371V43.1203H90.6569V44.7569H84.5972V36.4497Z" fill="black"/>
<path d="M92.1763 36.4497H94.3144V39.6061H97.4028V36.4497H99.5409V44.7569H97.4028V41.3632H94.3144V44.7569H92.1763V36.4497Z" fill="black"/>
<path d="M103.319 38.2032H100.764V36.4497H108.01V38.2032H105.457V44.7569H103.319V38.2032Z" fill="black"/>
<path d="M109.24 36.4497H112.625C113.781 36.4497 114.634 36.7006 115.185 37.2025C115.736 37.7043 116.011 38.3987 116.011 39.2855C116.011 40.1711 115.736 40.8654 115.185 41.3685C114.634 41.8715 113.781 42.1225 112.625 42.1213H111.384V44.7569H109.24V36.4497ZM112.387 40.3659C112.933 40.3659 113.317 40.275 113.54 40.0932C113.983 39.6464 113.983 38.9263 113.54 38.4795C113.317 38.2977 112.933 38.2068 112.387 38.2068H111.368V40.3659H112.387Z" fill="black"/>
<path d="M120.826 36.4497H126.053V37.4221H121.943V44.7569H120.826V36.4497Z" fill="black"/>
<path d="M130.604 44.8756C130.134 44.8766 129.667 44.7944 129.226 44.6329C128.783 44.4717 128.382 44.2147 128.051 43.8801C127.689 43.5069 127.41 43.0622 127.232 42.5747C127.012 41.9621 126.907 41.3141 126.923 40.6635V40.4262C126.908 39.7993 127.013 39.1753 127.232 38.5876C127.413 38.1105 127.692 37.6763 128.051 37.3123C128.383 36.9812 128.784 36.7277 129.226 36.5701C130.117 36.2538 131.09 36.2538 131.981 36.5701C132.423 36.7294 132.825 36.9847 133.157 37.3176C133.515 37.6817 133.794 38.1159 133.976 38.5929C134.194 39.1808 134.299 39.8046 134.284 40.4315V40.6688C134.3 41.3194 134.195 41.9673 133.976 42.58C133.795 43.0624 133.516 43.5022 133.157 43.8713C132.825 44.2055 132.424 44.4625 131.981 44.6241C131.54 44.7886 131.074 44.8737 130.604 44.8756ZM130.604 43.8784C130.925 43.8792 131.243 43.8191 131.541 43.7012C131.848 43.579 132.12 43.386 132.337 43.138C132.587 42.846 132.775 42.5069 132.891 42.1407C133.039 41.6628 133.109 41.1639 133.098 40.6635V40.4262C133.109 39.949 133.039 39.4735 132.891 39.0198C132.773 38.665 132.585 38.3378 132.337 38.058C132.118 37.8154 131.846 37.6263 131.541 37.5053C130.938 37.2676 130.267 37.2676 129.664 37.5053C129.36 37.6262 129.087 37.8153 128.868 38.058C128.62 38.3377 128.432 38.665 128.315 39.0198C128.167 39.4735 128.097 39.949 128.107 40.4262V40.6635C128.096 41.1639 128.166 41.6628 128.315 42.1407C128.43 42.5069 128.618 42.8461 128.868 43.138C129.086 43.3835 129.358 43.5741 129.664 43.6941C129.963 43.8122 130.282 43.8724 130.604 43.8713V43.8784Z" fill="black"/>
<path d="M136.341 36.4496H139.192C139.671 36.4415 140.149 36.5053 140.61 36.6392C140.977 36.7469 141.318 36.9276 141.613 37.1705C141.873 37.3876 142.075 37.665 142.202 37.9782C142.455 38.6391 142.455 39.3703 142.202 40.0311C142.075 40.3444 141.873 40.6218 141.613 40.8388C141.318 41.0817 140.977 41.2625 140.61 41.3702C140.149 41.504 139.671 41.5679 139.192 41.5597H137.458V44.7569H136.341V36.4496ZM139.133 40.5802C139.471 40.5869 139.808 40.5487 140.136 40.4669C140.376 40.4068 140.601 40.2996 140.798 40.1516C140.964 40.0227 141.092 39.8505 141.167 39.6539C141.317 39.2317 141.317 38.7706 141.167 38.3484C141.092 38.1512 140.964 37.9784 140.798 37.8489C140.599 37.7007 140.373 37.5935 140.133 37.5337C139.805 37.4519 139.467 37.4137 139.129 37.4203H137.454V40.5767L139.133 40.5802Z" fill="black"/>
<path d="M147.482 44.8756C147.012 44.8766 146.545 44.7945 146.104 44.633C145.661 44.4692 145.259 44.2091 144.929 43.8713C144.568 43.4981 144.288 43.0534 144.11 42.5659C143.89 41.9533 143.785 41.3053 143.801 40.6547V40.4173C143.786 39.7905 143.891 39.1665 144.11 38.5788C144.292 38.1017 144.57 37.6675 144.929 37.3035C145.261 36.9724 145.662 36.7189 146.104 36.5613C146.995 36.245 147.968 36.245 148.859 36.5613C149.301 36.719 149.702 36.9725 150.035 37.3035C150.393 37.6676 150.672 38.1018 150.854 38.5788C151.072 39.1666 151.177 39.7905 151.162 40.4173V40.6547C151.178 41.3053 151.073 41.9532 150.854 42.5659C150.675 43.0534 150.396 43.4981 150.035 43.8713C149.703 44.2055 149.302 44.4626 148.859 44.6241C148.419 44.7886 147.952 44.8738 147.482 44.8756ZM147.482 43.8784C147.803 43.8793 148.121 43.8192 148.42 43.7013C148.726 43.5791 148.999 43.386 149.216 43.138C149.465 42.8461 149.653 42.5069 149.769 42.1408C149.917 41.6629 149.988 41.1639 149.976 40.6636V40.4262C149.987 39.9491 149.917 39.4736 149.769 39.0198C149.651 38.6651 149.463 38.3379 149.216 38.058C148.996 37.8154 148.724 37.6264 148.42 37.5054C147.816 37.2677 147.145 37.2677 146.542 37.5054C146.238 37.6263 145.966 37.8153 145.746 38.058C145.498 38.3378 145.31 38.665 145.193 39.0198C145.045 39.4736 144.975 39.9491 144.985 40.4262V40.6636C144.974 41.1639 145.044 41.6629 145.193 42.1408C145.308 42.507 145.496 42.8461 145.746 43.138C145.963 43.3861 146.236 43.5792 146.542 43.7013C146.842 43.817 147.161 43.8747 147.482 43.8713V43.8784Z" fill="black"/>
<path d="M151.912 43.7845H152.799C152.968 43.4284 153.095 43.054 153.178 42.6686C153.286 42.1973 153.365 41.72 153.415 41.2392C153.471 40.7291 153.511 40.203 153.534 39.661C153.558 39.119 153.57 38.6029 153.57 38.1129V36.4497H158.975V43.7845H159.986V46.2997H158.922V44.7569H152.983V46.2997H151.919L151.912 43.7845ZM157.864 43.7845V37.4221H154.672V38.3485C154.681 39.391 154.628 40.4332 154.513 41.4694C154.427 42.2572 154.254 43.0329 153.997 43.7827L157.864 43.7845Z" fill="black"/>
<path d="M166.57 42.6916H163.055L162.25 44.7569H161.085L164.276 36.4497H165.393L168.584 44.7569H167.374L166.57 42.6916ZM163.424 41.7192H166.203L164.814 37.8738L163.424 41.7192Z" fill="black"/>
<path d="M75.238 50.4427H76.4028L79.1827 55.7246L81.9626 50.4427H83.0795V58.7499H81.9626V52.4601L79.5727 56.9786H78.7466L76.3585 52.469V58.7499H75.2416L75.238 50.4427Z" fill="black"/>
<path d="M88.8147 58.8687C88.3436 58.8701 87.876 58.7879 87.4336 58.626C86.991 58.4648 86.5896 58.2077 86.2582 57.8732C85.897 57.4999 85.618 57.0553 85.4391 56.5678C85.2185 55.9547 85.1133 55.3061 85.1289 54.6548V54.4175C85.1141 53.7906 85.2187 53.1667 85.4373 52.5789C85.6193 52.1018 85.8981 51.6676 86.2564 51.3036C86.5886 50.9725 86.99 50.719 87.4319 50.5614C88.3229 50.2451 89.2959 50.2451 90.1869 50.5614C90.6319 50.7203 91.0359 50.9762 91.3695 51.3107C91.7276 51.6748 92.0065 52.109 92.1885 52.586C92.4068 53.1738 92.5114 53.7977 92.497 54.4245V54.6619C92.5128 55.3125 92.4082 55.9604 92.1885 56.5731C92.0079 57.0555 91.729 57.4952 91.3695 57.8643C91.0378 58.1986 90.6365 58.4556 90.194 58.6171C89.7528 58.7819 89.2858 58.867 88.8147 58.8687ZM88.8147 57.8714C89.1357 57.8723 89.454 57.8122 89.7526 57.6943C90.0588 57.5721 90.3316 57.379 90.5486 57.131C90.7981 56.8391 90.9862 56.4999 91.1017 56.1338C91.2505 55.6559 91.3206 55.157 91.3092 54.6566V54.4192C91.3198 53.9421 91.2497 53.4666 91.1017 53.0128C90.9845 52.6581 90.7963 52.3309 90.5486 52.051C90.329 51.8085 90.0567 51.6194 89.7526 51.4984C89.1494 51.2607 88.4783 51.2607 87.8751 51.4984C87.5709 51.6193 87.2985 51.8084 87.079 52.051C86.8313 52.3308 86.6431 52.6581 86.5259 53.0128C86.3778 53.4666 86.3077 53.9421 86.3185 54.4192V54.6566C86.307 55.157 86.3771 55.6559 86.5259 56.1338C86.6413 56.5 86.8294 56.8392 87.079 57.131C87.2973 57.3768 87.5707 57.5674 87.8769 57.6872C88.1754 57.8051 88.4937 57.8652 88.8147 57.8643V57.8714Z" fill="black"/>
<path d="M97.5819 58.8685C97.1274 58.8709 96.6765 58.7886 96.2522 58.6259C95.8271 58.4603 95.4452 58.2005 95.1353 57.866C94.7896 57.4872 94.5264 57.0409 94.3623 56.5553C94.1593 55.9433 94.0628 55.3011 94.0769 54.6565V54.4191C94.0631 53.7943 94.1597 53.1719 94.3623 52.5805C94.5272 52.1074 94.7906 51.6745 95.1353 51.3105C95.4493 50.9851 95.8304 50.7319 96.2522 50.5684C96.6765 50.4057 97.1274 50.3234 97.5819 50.3257C98.0022 50.3209 98.4208 50.3807 98.8229 50.5028C99.1811 50.6125 99.5167 50.7853 99.814 51.013C100.1 51.235 100.336 51.5136 100.509 51.8313C100.693 52.1736 100.808 52.5484 100.848 52.9348H99.6668C99.5898 52.4572 99.3369 52.0257 98.9577 51.725C98.5558 51.442 98.0714 51.3 97.5801 51.3212C97.2872 51.3214 96.9971 51.3779 96.7256 51.4877C96.4401 51.6049 96.1858 51.7868 95.9827 52.0191C95.7441 52.2976 95.566 52.6228 95.4597 52.9738C95.3185 53.4428 95.2521 53.9312 95.2629 54.4209V54.6582C95.2501 55.1709 95.3226 55.682 95.4775 56.1709C95.5947 56.5327 95.78 56.8688 96.0235 57.161C96.2254 57.4003 96.4821 57.5874 96.7717 57.7066C97.028 57.8134 97.3024 57.87 97.5801 57.8731C98.1983 57.8731 98.6811 57.7225 99.0286 57.4214C99.3751 57.1245 99.5993 56.71 99.658 56.2577H100.846C100.797 56.6724 100.668 57.0736 100.466 57.4391C100.286 57.7568 100.041 58.0337 99.7484 58.2522C99.4524 58.4694 99.1179 58.6286 98.7626 58.7215C98.3772 58.8221 97.9802 58.8716 97.5819 58.8685Z" fill="black"/>
<path d="M102.783 50.4427H103.9V54.0153H104.851L108.106 50.4427H109.435L105.801 54.4068L109.554 58.7499H108.136L104.858 54.9399H103.907V58.7499H102.791L102.783 50.4427Z" fill="black"/>
<path d="M111.253 50.4427H114.222C114.656 50.434 115.089 50.4901 115.506 50.6092C115.828 50.702 116.13 50.8573 116.392 51.0662C116.621 51.2555 116.798 51.4991 116.908 51.7747C117.021 52.0598 117.078 52.3642 117.075 52.671C117.086 53.0668 116.961 53.4544 116.72 53.7691C116.492 54.0668 116.185 54.295 115.834 54.4281C116.286 54.5163 116.696 54.7525 116.999 55.0994C117.295 55.4701 117.447 55.9359 117.426 56.4101C117.429 56.7301 117.373 57.0479 117.259 57.3471C117.148 57.6331 116.968 57.8878 116.736 58.0893C116.467 58.3159 116.154 58.4836 115.816 58.5817C115.374 58.709 114.916 58.7687 114.456 58.7588H111.253V50.4427ZM114.222 54.0154C114.502 54.0214 114.782 53.9892 115.054 53.9197C115.249 53.8692 115.431 53.7761 115.586 53.6469C115.715 53.5354 115.814 53.3919 115.871 53.2307C115.928 53.0625 115.956 52.8858 115.954 52.7082C115.956 52.5276 115.928 52.3481 115.871 52.1768C115.816 52.0162 115.717 51.8744 115.586 51.7676C115.428 51.6458 115.247 51.5572 115.054 51.5072C114.782 51.4378 114.502 51.4056 114.222 51.4116H112.37V54.01L114.222 54.0154ZM114.46 57.7775C114.758 57.7838 115.057 57.7498 115.346 57.6766C115.555 57.6242 115.75 57.5269 115.917 57.3914C116.057 57.2734 116.161 57.1197 116.22 56.9468C116.282 56.7593 116.312 56.563 116.309 56.3658C116.311 56.1663 116.281 55.9677 116.22 55.7778C116.163 55.6022 116.058 55.4459 115.917 55.3261C115.748 55.1901 115.552 55.0927 115.341 55.0409C115.048 54.9676 114.746 54.9336 114.444 54.94H112.37V57.774L114.46 57.7775Z" fill="black"/>
<path d="M119.365 50.4427H120.482V53.7656H121.979C122.457 53.7575 122.935 53.8171 123.397 53.9427C123.763 54.042 124.104 54.2157 124.4 54.4528C124.658 54.6642 124.86 54.9354 124.989 55.2428C125.243 55.8957 125.243 56.6198 124.989 57.2727C124.86 57.5801 124.658 57.8514 124.4 58.0627C124.105 58.2999 123.763 58.4735 123.397 58.5728C122.935 58.6983 122.457 58.758 121.979 58.7499H119.365V50.4427ZM121.92 57.7775C122.712 57.7775 123.268 57.6452 123.588 57.3807C123.896 57.0885 124.069 56.6833 124.069 56.2595C124.069 55.8357 123.896 55.4305 123.588 55.1383C123.268 54.8738 122.712 54.7409 121.92 54.7398H120.482V57.7775H121.92ZM126.437 50.4427H127.554V58.7499H126.437V50.4427Z" fill="black"/>
<path d="M28.1339 18.0728C27.8644 20.8448 26.884 25.8505 26.884 29.1698C26.884 32.4148 27.868 56.2029 28.1251 62.5813C28.1208 62.6069 28.1321 62.6327 28.1539 62.6469C28.1757 62.6611 28.2038 62.6611 28.2256 62.6469C28.2474 62.6327 28.2587 62.6069 28.2545 62.5813C28.5204 56.2047 29.4955 32.413 29.4955 29.1698C29.4955 25.8505 28.5115 20.8448 28.2545 18.0728C28.2441 18.0487 28.2204 18.0331 28.1942 18.0331C28.168 18.0331 28.1443 18.0487 28.1339 18.0728Z" fill="black"/>
<path d="M32.0751 18.0745C31.8091 22.6479 30.834 35.7341 30.834 39.0162C30.834 42.2984 31.818 58.0095 32.0751 62.5741C32.0803 62.6057 32.1077 62.6289 32.1398 62.6289C32.1719 62.6289 32.1992 62.6057 32.2045 62.5741C32.4686 58.0007 33.4455 42.2895 33.4455 39.0162C33.4455 35.7429 32.474 22.6479 32.2045 18.0745C32.1992 18.0429 32.1719 18.0197 32.1398 18.0197C32.1077 18.0197 32.0803 18.0429 32.0751 18.0745Z" fill="black"/>
<path d="M36.0196 18.0763C35.7537 24.3165 34.7786 44.9234 34.7786 48.1701C34.7786 51.4877 35.7625 59.6834 36.0196 62.5847C36.0249 62.6163 36.0522 62.6395 36.0843 62.6395C36.1164 62.6395 36.1438 62.6163 36.149 62.5847C36.4132 59.6781 37.3901 51.4877 37.3901 48.1701C37.3901 44.9234 36.4061 24.3147 36.149 18.0763C36.1533 18.0506 36.142 18.0249 36.1202 18.0107C36.0984 17.9964 36.0702 17.9964 36.0485 18.0107C36.0267 18.0249 36.0153 18.0506 36.0196 18.0763Z" fill="black"/>
<path d="M39.9591 18.0763C39.6932 25.9815 38.7181 52.1431 38.7181 56.0151C38.7181 58.0521 39.7056 61.359 39.968 62.5936C39.968 62.6288 39.9965 62.6574 40.0318 62.6574C40.067 62.6574 40.0956 62.6288 40.0956 62.5936C40.358 61.3537 41.3455 58.0521 41.3455 56.0151C41.3384 52.1449 40.3544 25.9815 40.0974 18.0763C40.0974 18.0382 40.0664 18.0072 40.0282 18.0072C39.99 18.0072 39.9591 18.0382 39.9591 18.0763Z" fill="black"/>
<path d="M55.7271 18.0727C55.463 20.8412 54.4861 25.8504 54.4861 29.1697C54.4861 32.4147 55.4701 56.2028 55.7271 62.5812C55.7229 62.6068 55.7342 62.6326 55.756 62.6468C55.7778 62.661 55.8059 62.661 55.8277 62.6468C55.8495 62.6326 55.8608 62.6068 55.8566 62.5812C56.1225 56.2046 57.0976 32.4129 57.0976 29.1697C57.0976 25.8504 56.1136 20.8448 55.8566 18.0727C55.8513 18.0411 55.8239 18.0179 55.7919 18.0179C55.7598 18.0179 55.7324 18.0411 55.7271 18.0727Z" fill="black"/>
<path d="M51.786 18.0745C51.5218 22.6479 50.5449 35.7341 50.5449 39.0162C50.5449 42.2984 51.5289 58.0095 51.786 62.5741C51.7912 62.6057 51.8186 62.6289 51.8507 62.6289C51.8828 62.6289 51.9101 62.6057 51.9154 62.5741C52.1796 58.0007 53.1564 42.2895 53.1564 39.0162C53.1564 35.7429 52.1725 22.6479 51.9154 18.0745C51.9101 18.0429 51.8828 18.0197 51.8507 18.0197C51.8186 18.0197 51.7912 18.0429 51.786 18.0745Z" fill="black"/>
<path d="M47.8431 18.0763C47.5772 24.3165 46.6021 44.9234 46.6021 48.1701C46.6021 51.4877 47.586 59.6834 47.8431 62.5847C47.8484 62.6163 47.8757 62.6395 47.9078 62.6395C47.9399 62.6395 47.9673 62.6163 47.9725 62.5847C48.2367 59.6781 49.2136 51.4877 49.2136 48.1701C49.2136 44.9234 48.2296 24.3147 47.9725 18.0763C47.9768 18.0506 47.9655 18.0249 47.9437 18.0107C47.9219 17.9964 47.8938 17.9964 47.872 18.0107C47.8502 18.0249 47.8389 18.0506 47.8431 18.0763Z" fill="black"/>
<path d="M43.9019 18.0763C43.636 25.9815 42.6609 52.1431 42.6609 56.0151C42.6609 58.0521 43.6484 61.359 43.9108 62.5936C43.9108 62.6288 43.9394 62.6574 43.9746 62.6574C44.0099 62.6574 44.0385 62.6288 44.0385 62.5936C44.3008 61.3537 45.2883 58.0521 45.2883 56.0151C45.2883 52.1449 44.3044 25.9832 44.0473 18.0763C44.0473 18.0362 44.0148 18.0037 43.9746 18.0037C43.9345 18.0037 43.9019 18.0362 43.9019 18.0763Z" fill="black"/>
<path d="M20.3775 18.0621C20.3782 18.0568 20.3782 18.0515 20.3775 18.0462L20.3527 18.0249L20.335 18.0108C20.3212 18.0061 20.3062 18.0061 20.2924 18.0108H20.28L20.2623 18.0373C20.2617 18.0426 20.2617 18.048 20.2623 18.0533C19.9893 19.1568 19 21.9501 19 23.9888C19 28.4949 19.3723 34.3808 19.3723 40.3288C19.3723 46.2767 19 52.1626 19 56.6687C19 58.7075 19.9893 61.5007 20.2517 62.5954C20.251 62.6007 20.251 62.606 20.2517 62.6113L20.2641 62.6237H20.3314L20.3421 62.6113C20.3427 62.606 20.3427 62.6007 20.3421 62.5954C20.6045 61.5007 21.5937 58.7092 21.5937 56.6687C21.5937 52.1626 21.2214 46.2767 21.2214 40.3288C21.2214 34.3808 21.5937 28.4949 21.5937 23.9888C21.6274 21.9501 20.6399 19.1568 20.3775 18.0621Z" fill="black"/>
<path d="M24.3188 18.0621C24.3195 18.0568 24.3195 18.0515 24.3188 18.0462L24.2958 18.0249H24.2834C24.2696 18.0202 24.2546 18.0202 24.2408 18.0249H24.2284L24.216 18.0373C24.2153 18.0426 24.2153 18.048 24.216 18.0533C23.9536 19.1479 22.9643 21.9394 22.9643 23.9799C22.9643 28.4878 23.3384 34.372 23.3384 40.3199C23.3384 46.2678 22.9643 52.1537 22.9643 56.6599C22.9643 58.6986 23.9536 61.4919 24.216 62.5865C24.2153 62.5918 24.2153 62.5972 24.216 62.6025L24.2284 62.6149H24.2958L24.3064 62.6025C24.3071 62.5972 24.3071 62.5918 24.3064 62.5865C24.5688 61.4919 25.5581 58.7004 25.5581 56.6599C25.5581 52.1537 25.1858 46.2678 25.1858 40.3199C25.1858 34.372 25.5581 28.486 25.5581 23.9799C25.5705 21.9501 24.5812 19.1568 24.3188 18.0621Z" fill="black"/>
<path d="M64.9907 23.9887C64.9907 21.95 64.0015 19.1567 63.7391 18.0621C63.7397 18.0568 63.7397 18.0514 63.7391 18.0461L63.7284 18.0337H63.716C63.7022 18.029 63.6873 18.029 63.6735 18.0337H63.6611L63.6504 18.0461C63.6498 18.0514 63.6498 18.0568 63.6504 18.0621C63.3881 19.1567 62.3988 21.9482 62.3988 23.9887C62.3988 28.4966 62.7711 34.3808 62.7711 40.3287C62.7711 46.2766 62.3988 52.1625 62.3988 56.6687C62.3988 58.7074 63.3881 61.5007 63.6504 62.5953C63.6498 62.6006 63.6498 62.606 63.6504 62.6113L63.6611 62.6237H63.7284L63.7391 62.6113C63.7397 62.606 63.7397 62.6006 63.7391 62.5953C64.0015 61.5007 64.9907 58.7092 64.9907 56.6687C64.9907 52.1625 64.6184 46.2766 64.6184 40.3287C64.6184 34.3808 64.9907 28.4948 64.9907 23.9887Z" fill="black"/>
<path d="M59.7977 18.0621C59.7983 18.0568 59.7983 18.0515 59.7977 18.0462L59.7764 18.0249H59.764C59.7502 18.0202 59.7352 18.0202 59.7215 18.0249H59.709L59.6966 18.0373C59.696 18.0426 59.696 18.048 59.6966 18.0533C59.4342 19.1479 58.445 21.9394 58.445 23.9799C58.445 28.4878 58.8191 34.372 58.8191 40.3199C58.8191 46.2678 58.445 52.1537 58.445 56.6599C58.445 58.6986 59.4342 61.4919 59.6966 62.5865C59.696 62.5918 59.696 62.5972 59.6966 62.6025L59.709 62.6149H59.7764L59.7871 62.6025C59.7877 62.5972 59.7877 62.5918 59.7871 62.5865C60.0494 61.4919 61.0387 58.7004 61.0387 56.6599C61.0387 52.1537 60.6664 46.2678 60.6664 40.3199C60.6664 34.372 61.0387 28.486 61.0387 23.9799C61.0494 21.9501 60.0601 19.1568 59.7977 18.0621Z" fill="black"/>
</svg>
