<svg width="24" height="24" viewBox="0 0 24 24" fill="none" xmlns="http://www.w3.org/2000/svg">
<path d="M3.84039 5.60582V6.38593H5.0551C5.07332 6.38389 5.09177 6.38598 5.10908 6.39204C5.12637 6.39811 5.1421 6.408 5.15506 6.42095C5.16801 6.43391 5.1779 6.44964 5.18397 6.46693C5.19004 6.48424 5.19212 6.50269 5.19008 6.52091V7.08238C5.19212 7.1006 5.19004 7.11904 5.18397 7.13633C5.1779 7.15364 5.16801 7.16935 5.15506 7.18233C5.1421 7.19529 5.12637 7.20518 5.10908 7.21122C5.09177 7.21729 5.07332 7.21938 5.0551 7.21733H3.84039V8.41855C3.84244 8.43678 3.84035 8.45522 3.83428 8.47253C3.82821 8.48984 3.81832 8.50555 3.80537 8.51851C3.79241 8.53149 3.77668 8.54135 3.75939 8.54742C3.74208 8.55349 3.72364 8.55558 3.70541 8.55353H3.11157C3.09335 8.55558 3.0749 8.55349 3.05759 8.54742C3.04028 8.54135 3.02457 8.53149 3.01161 8.51851C2.99864 8.50555 2.98877 8.48984 2.9827 8.47253C2.97664 8.45522 2.97455 8.43678 2.97659 8.41855V4.90938C2.97455 4.89115 2.97664 4.87271 2.9827 4.85542C2.98877 4.83811 2.99864 4.8224 3.01161 4.80942C3.02457 4.79647 3.04028 4.78658 3.05759 4.78053C3.0749 4.77447 3.09335 4.77238 3.11157 4.7744H5.0821C5.10032 4.77238 5.11877 4.77447 5.13606 4.78053C5.15337 4.78658 5.16908 4.79647 5.18206 4.80942C5.19501 4.8224 5.2049 4.83811 5.21095 4.85542C5.21701 4.87271 5.2191 4.89115 5.21708 4.90938V5.47084C5.2191 5.48907 5.21701 5.50751 5.21095 5.52482C5.2049 5.54211 5.19501 5.55784 5.18206 5.5708C5.16908 5.58375 5.15337 5.59364 5.13606 5.59971C5.11877 5.60575 5.10032 5.60787 5.0821 5.60582H3.84039Z" fill="url(#paint0_linear_3152_2)"/>
<path d="M5.54126 6.66438C5.54126 6.40631 5.59208 6.15077 5.69084 5.91235C5.78959 5.67393 5.93435 5.45729 6.11684 5.27482C6.2993 5.09233 6.51595 4.94758 6.75437 4.84882C6.99279 4.75006 7.24833 4.69924 7.50639 4.69924C7.76446 4.69924 8.01999 4.75006 8.25842 4.84882C8.49684 4.94758 8.71348 5.09233 8.89597 5.27482C9.07844 5.45729 9.22319 5.67393 9.32195 5.91235C9.4207 6.15077 9.47155 6.40631 9.47155 6.66438C9.47155 6.92244 9.4207 7.17798 9.32195 7.4164C9.22319 7.65482 9.07844 7.87146 8.89597 8.05395C8.71348 8.23642 8.49684 8.38117 8.25842 8.47993C8.01999 8.57869 7.76446 8.62953 7.50639 8.62953C7.24833 8.62953 6.99279 8.57869 6.75437 8.47993C6.51595 8.38117 6.2993 8.23642 6.11684 8.05395C5.93435 7.87146 5.78959 7.65482 5.69084 7.4164C5.59208 7.17798 5.54126 6.92244 5.54126 6.66438ZM8.60775 6.66438C8.60775 5.98953 8.12186 5.54144 7.50639 5.54144C6.89095 5.54144 6.40506 5.98953 6.40506 6.66438C6.40506 7.33922 6.89095 7.78731 7.50639 7.78731C8.12186 7.78731 8.60775 7.33922 8.60775 6.66438Z" fill="url(#paint1_linear_3152_2)"/>
<path d="M13.0125 8.38618C13.08 8.47255 13.0449 8.55353 12.9315 8.55353H12.2405C12.208 8.5556 12.1755 8.54924 12.1461 8.53504C12.1168 8.52087 12.0917 8.49933 12.0731 8.47255L11.1533 7.31182H10.8206V8.41855C10.8227 8.43678 10.8206 8.45522 10.8145 8.47253C10.8084 8.48984 10.7985 8.50555 10.7856 8.51851C10.7726 8.53149 10.7569 8.54135 10.7396 8.54742C10.7223 8.55349 10.7039 8.55558 10.6856 8.55353H10.0918C10.0736 8.55558 10.0551 8.55349 10.0378 8.54742C10.0205 8.54135 10.0048 8.53149 9.99184 8.51851C9.97886 8.50555 9.96899 8.48984 9.96293 8.47253C9.95686 8.45522 9.95477 8.43678 9.95682 8.41855V4.90938C9.95477 4.89115 9.95686 4.87271 9.96293 4.85542C9.96899 4.83811 9.97886 4.8224 9.99184 4.80942C10.0048 4.79647 10.0205 4.78658 10.0378 4.78053C10.0551 4.77447 10.0736 4.77238 10.0918 4.7744H11.4118C11.5821 4.77395 11.7507 4.80718 11.9081 4.87213C12.0655 4.93709 12.2085 5.03251 12.329 5.15291C12.4494 5.27333 12.5448 5.41633 12.6097 5.57373C12.6747 5.73113 12.7079 5.89982 12.7075 6.07011C12.7028 6.29338 12.6383 6.51131 12.5209 6.7012C12.4033 6.89111 12.2371 7.04604 12.0394 7.14987L13.0098 8.38347L13.0125 8.38618ZM10.8206 6.556H11.4118C11.6493 6.556 11.8437 6.34544 11.8437 6.07011C11.8437 5.79478 11.6493 5.58422 11.4118 5.58422H10.8179L10.8206 6.556Z" fill="url(#paint2_linear_3152_2)"/>
<path d="M16.1118 6.07011C16.1115 6.24269 16.0768 6.41347 16.0097 6.57247C15.9426 6.73147 15.8445 6.87549 15.7211 6.99613C15.5977 7.11678 15.4514 7.2116 15.2909 7.27509C15.1305 7.33855 14.9589 7.3694 14.7864 7.3658H14.2195V8.41855C14.2216 8.43678 14.2195 8.45522 14.2134 8.47253C14.2074 8.48984 14.1975 8.50555 14.1845 8.51851C14.1716 8.53149 14.1559 8.54135 14.1385 8.54742C14.1212 8.55349 14.1028 8.55558 14.0846 8.55353H13.4907C13.4725 8.55558 13.4541 8.55349 13.4367 8.54742C13.4194 8.54135 13.4037 8.53149 13.3908 8.51851C13.3778 8.50555 13.3679 8.48984 13.3619 8.47253C13.3558 8.45522 13.3537 8.43678 13.3557 8.41855V4.90938C13.3537 4.89115 13.3558 4.87271 13.3619 4.85542C13.3679 4.83811 13.3778 4.8224 13.3908 4.80942C13.4037 4.79647 13.4194 4.78658 13.4367 4.78053C13.4541 4.77447 13.4725 4.77238 13.4907 4.7744H14.7864C14.9589 4.77082 15.1305 4.80167 15.2909 4.86513C15.4514 4.92862 15.5977 5.02344 15.7211 5.14409C15.8445 5.26471 15.9426 5.40875 16.0097 5.56775C16.0768 5.72675 16.1115 5.89753 16.1118 6.07011ZM15.248 6.07011C15.248 5.79478 15.0537 5.58422 14.7891 5.58422H14.2222V6.556H14.7864C15.0563 6.556 15.248 6.34544 15.248 6.07011Z" fill="url(#paint3_linear_3152_2)"/>
<path d="M16.6762 4.7744H17.2701C17.2883 4.77238 17.3068 4.77447 17.3241 4.78053C17.3414 4.78658 17.3571 4.79647 17.3701 4.80942C17.383 4.8224 17.3929 4.83811 17.399 4.85542C17.405 4.87271 17.4071 4.89115 17.4051 4.90938V8.41855C17.4071 8.43678 17.405 8.45522 17.399 8.47253C17.3929 8.48984 17.383 8.50555 17.3701 8.51851C17.3571 8.53149 17.3414 8.54135 17.3241 8.54742C17.3068 8.55349 17.2883 8.55558 17.2701 8.55353H16.6762C16.658 8.55558 16.6396 8.55349 16.6223 8.54742C16.605 8.54135 16.5893 8.53149 16.5763 8.51851C16.5633 8.50555 16.5535 8.48984 16.5474 8.47253C16.5413 8.45522 16.5392 8.43678 16.5413 8.41855V4.90938C16.5392 4.89115 16.5413 4.87271 16.5474 4.85542C16.5535 4.83811 16.5633 4.8224 16.5763 4.80942C16.5893 4.79647 16.605 4.78658 16.6223 4.78053C16.6396 4.77447 16.658 4.77238 16.6762 4.7744Z" fill="url(#paint4_linear_3152_2)"/>
<path d="M20.9106 8.55353H20.2304C20.1981 8.55511 20.166 8.54791 20.1375 8.53271C20.109 8.51749 20.0851 8.49484 20.0684 8.46715L18.9212 6.80502V8.41855C18.9232 8.43678 18.9212 8.45522 18.9151 8.47253C18.909 8.48984 18.8991 8.50555 18.8862 8.51851C18.8732 8.53149 18.8575 8.54135 18.8402 8.54742C18.8229 8.55349 18.8044 8.55558 18.7862 8.55353H18.1924C18.1742 8.55558 18.1557 8.55349 18.1384 8.54742C18.1211 8.54135 18.1054 8.53149 18.0924 8.51851C18.0794 8.50555 18.0696 8.48984 18.0635 8.47253C18.0574 8.45522 18.0554 8.43678 18.0574 8.41855V4.90938C18.0554 4.89115 18.0574 4.87271 18.0635 4.85542C18.0696 4.83811 18.0794 4.8224 18.0924 4.80942C18.1054 4.79647 18.1211 4.78658 18.1384 4.78053C18.1557 4.77447 18.1742 4.77238 18.1924 4.7744H18.7862C18.8044 4.77238 18.8229 4.77447 18.8402 4.78053C18.8575 4.78658 18.8732 4.79647 18.8862 4.80942C18.8991 4.8224 18.909 4.83811 18.9151 4.85542C18.9212 4.87271 18.9232 4.89115 18.9212 4.90938V6.41833L20.0144 4.8608C20.0316 4.83353 20.0555 4.81124 20.084 4.79609C20.1124 4.78093 20.1442 4.77347 20.1764 4.7744H20.8594C20.9673 4.7744 21.0105 4.84189 20.9457 4.93638L19.7796 6.61269L20.9943 8.39158C21.0564 8.48335 21.0186 8.55353 20.9106 8.55353Z" fill="url(#paint5_linear_3152_2)"/>
<path d="M3.04967 18.6837V17.718C3.04812 17.6415 3.06263 17.5655 3.09227 17.495C3.12192 17.4244 3.16603 17.3609 3.22174 17.3084L6.13167 14.3722C6.64725 13.8431 7.0967 13.1946 7.0967 12.6128C7.0967 11.9913 6.77952 11.6336 6.18432 11.6336C5.62892 11.6336 5.29825 11.859 5.1923 12.3483C5.15247 12.5595 5.04721 12.6655 4.84881 12.6655H3.3817C3.16978 12.6655 3.05101 12.5467 3.06452 12.322C3.22174 10.4041 4.6639 9.57065 6.13167 9.57065C7.6791 9.57065 9.2137 10.4965 9.2137 12.6128C9.2137 13.6312 8.59147 14.6873 7.83565 15.4296L6.23763 16.9777H9.01461C9.22652 16.9777 9.34596 17.0965 9.34596 17.3084V18.6837C9.34596 18.8956 9.22652 19.0144 9.01461 19.0144H3.3817C3.16843 19.0144 3.04967 18.8956 3.04967 18.6837Z" fill="url(#paint6_linear_3152_2)"/>
<path d="M10.5352 18.6823V17.2274C10.5352 17.0162 10.6546 16.8967 10.8665 16.8967H12.3208C12.5327 16.8967 12.6521 17.0162 12.6521 17.2274V18.6823C12.6521 18.8942 12.5327 19.013 12.3208 19.013H10.8672C10.6553 19.013 10.5352 18.8942 10.5352 18.6823Z" fill="url(#paint7_linear_3152_2)"/>
<path d="M13.4458 14.385C13.4458 11.5284 14.8218 9.57065 17.2155 9.57065C19.6091 9.57065 20.9851 11.5277 20.9851 14.385C20.9851 17.2423 19.6098 19.2 17.2161 19.2C14.8225 19.2 13.4458 17.2423 13.4458 14.385ZM18.8688 14.385C18.8688 12.5994 18.329 11.6336 17.2155 11.6336C16.102 11.6336 15.5621 12.5994 15.5621 14.385C15.5621 16.1706 16.102 17.1363 17.2155 17.1363C18.329 17.1363 18.8688 16.172 18.8688 14.385Z" fill="url(#paint8_linear_3152_2)"/>
<defs>
<linearGradient id="paint0_linear_3152_2" x1="12.0013" y1="19.1992" x2="12.0013" y2="4.69882" gradientUnits="userSpaceOnUse">
<stop stop-color="#E1BEE7"/>
<stop offset="0.15" stop-color="#E040FB"/>
<stop offset="1" stop-color="#F50057" stop-opacity="0.65"/>
</linearGradient>
<linearGradient id="paint1_linear_3152_2" x1="12.0015" y1="19.1996" x2="12.0015" y2="4.69924" gradientUnits="userSpaceOnUse">
<stop stop-color="#E1BEE7"/>
<stop offset="0.15" stop-color="#E040FB"/>
<stop offset="1" stop-color="#F50057" stop-opacity="0.65"/>
</linearGradient>
<linearGradient id="paint2_linear_3152_2" x1="12.0009" y1="19.1992" x2="12.0009" y2="4.69882" gradientUnits="userSpaceOnUse">
<stop stop-color="#E1BEE7"/>
<stop offset="0.15" stop-color="#E040FB"/>
<stop offset="1" stop-color="#F50057" stop-opacity="0.65"/>
</linearGradient>
<linearGradient id="paint3_linear_3152_2" x1="12.0013" y1="19.1992" x2="12.0013" y2="4.69882" gradientUnits="userSpaceOnUse">
<stop stop-color="#E1BEE7"/>
<stop offset="0.15" stop-color="#E040FB"/>
<stop offset="1" stop-color="#F50057" stop-opacity="0.65"/>
</linearGradient>
<linearGradient id="paint4_linear_3152_2" x1="12.0016" y1="19.1992" x2="12.0016" y2="4.69882" gradientUnits="userSpaceOnUse">
<stop stop-color="#E1BEE7"/>
<stop offset="0.15" stop-color="#E040FB"/>
<stop offset="1" stop-color="#F50057" stop-opacity="0.65"/>
</linearGradient>
<linearGradient id="paint5_linear_3152_2" x1="12.0007" y1="19.1992" x2="12.0007" y2="4.69882" gradientUnits="userSpaceOnUse">
<stop stop-color="#E1BEE7"/>
<stop offset="0.15" stop-color="#E040FB"/>
<stop offset="1" stop-color="#F50057" stop-opacity="0.65"/>
</linearGradient>
<linearGradient id="paint6_linear_3152_2" x1="12.0015" y1="19.2" x2="12.0015" y2="4.69965" gradientUnits="userSpaceOnUse">
<stop stop-color="#E1BEE7"/>
<stop offset="0.15" stop-color="#E040FB"/>
<stop offset="1" stop-color="#F50057" stop-opacity="0.65"/>
</linearGradient>
<linearGradient id="paint7_linear_3152_2" x1="12.0016" y1="19.1986" x2="12.0016" y2="4.69822" gradientUnits="userSpaceOnUse">
<stop stop-color="#E1BEE7"/>
<stop offset="0.15" stop-color="#E040FB"/>
<stop offset="1" stop-color="#F50057" stop-opacity="0.65"/>
</linearGradient>
<linearGradient id="paint8_linear_3152_2" x1="12.0016" y1="19.2" x2="12.0016" y2="4.69965" gradientUnits="userSpaceOnUse">
<stop stop-color="#E1BEE7"/>
<stop offset="0.15" stop-color="#E040FB"/>
<stop offset="1" stop-color="#F50057" stop-opacity="0.65"/>
</linearGradient>
</defs>
</svg>
